<?xml version="1.0" encoding="utf-8"?>
<!-- Generator: Adobe Illustrator 16.0.0, SVG Export Plug-In . SVG Version: 6.00 Build 0)  -->
<!DOCTYPE svg PUBLIC "-//W3C//DTD SVG 1.1//EN" "http://www.w3.org/Graphics/SVG/1.1/DTD/svg11.dtd">
<svg version="1.1" id="图层_1" xmlns="http://www.w3.org/2000/svg" xmlns:xlink="http://www.w3.org/1999/xlink" x="0px" y="0px"
	 width="841.89px" height="595.276px" viewBox="-136.151 -107.014 841.89 595.276"
	 enable-background="new -136.151 -107.014 841.89 595.276" xml:space="preserve">
<line fill="none" stroke="#000000" stroke-miterlimit="10" x1="456.383" y1="315.313" x2="568.504" y2="316.323"/>
<line fill="none" stroke="#000000" stroke-miterlimit="10" x1="456.383" y1="315.313" x2="456.383" y2="427.435"/>
<line fill="none" stroke="#000000" stroke-miterlimit="10" x1="549.315" y1="406.223" x2="549.315" y2="423.394"/>
<line fill="none" stroke="#000000" stroke-miterlimit="10" x1="549.315" y1="406.223" x2="568.504" y2="406.223"/>
<line fill="none" stroke="#000000" stroke-miterlimit="10" x1="-4.222" y1="2.182" x2="518" y2="2.182"/>
<line fill="none" stroke="#000000" stroke-miterlimit="10" x1="518" y1="2.182" x2="518" y2="186.02"/>
<line fill="none" stroke="#000000" stroke-miterlimit="10" x1="8.909" y1="-28.121" x2="9.919" y2="2.182"/>
<line fill="none" stroke="#000000" stroke-miterlimit="10" x1="5.879" y1="-34.182" x2="-4.222" y2="2.182"/>
<rect x="518" y="186.02" fill="none" stroke="#000000" stroke-miterlimit="10" width="50.506" height="48.485"/>
<line fill="none" stroke="#000000" stroke-miterlimit="10" x1="568.504" y1="186.02" x2="518" y2="234.506"/>
<line fill="none" stroke="#000000" stroke-miterlimit="10" x1="518" y1="186.02" x2="568.504" y2="234.506"/>
<rect x="59.414" y="315.313" fill="none" stroke="#000000" stroke-miterlimit="10" width="50.505" height="43.434"/>
<polygon fill="none" stroke="#000000" stroke-miterlimit="10" points="158.92,316.323 212.456,316.323 211.94,358.746 
	158.404,358.746 "/>
<rect x="261.434" y="316.323" fill="none" stroke="#000000" stroke-miterlimit="10" width="58.584" height="42.424"/>
<rect x="64.465" y="38.545" fill="none" stroke="#000000" stroke-miterlimit="10" width="45.454" height="248.484"/>
<rect x="416.991" y="38.545" fill="none" stroke="#000000" stroke-miterlimit="10" width="51.516" height="46.466"/>
<rect x="416.991" y="105.212" fill="none" stroke="#000000" stroke-miterlimit="10" width="51.516" height="50.505"/>
<rect x="416.991" y="178.95" fill="none" stroke="#000000" stroke-miterlimit="10" width="51.516" height="49.994"/>
<rect x="388.708" y="316.323" fill="none" stroke="#000000" stroke-miterlimit="10" width="54.041" height="42.424"/>
<rect x="456.383" y="316.323" fill="none" stroke="#000000" stroke-miterlimit="10" width="47.477" height="42.424"/>
<line fill="none" stroke="#000000" stroke-miterlimit="10" x1="372.545" y1="2.182" x2="371.536" y2="281.979"/>
<line fill="none" stroke="#000000" stroke-miterlimit="10" x1="371.536" y1="316.323" x2="372.545" y2="427.435"/>
<line fill="none" stroke="#000000" stroke-miterlimit="10" x1="-4.222" y1="381.979" x2="371.536" y2="377.939"/>
<line fill="none" stroke="#000000" stroke-miterlimit="10" x1="25.071" y1="2.182" x2="31.131" y2="379.958"/>
<line fill="none" stroke="#000000" stroke-miterlimit="10" x1="-9.273" y1="53.697" x2="25.071" y2="51.677"/>
<line fill="none" stroke="#000000" stroke-miterlimit="10" x1="-4.222" y1="101.172" x2="25.071" y2="105.212"/>
<line fill="none" stroke="#000000" stroke-miterlimit="10" x1="-4.222" y1="155.717" x2="28.101" y2="174.909"/>
<line fill="none" stroke="#000000" stroke-miterlimit="10" x1="-4.222" y1="216.323" x2="28.895" y2="240.569"/>
<line fill="none" stroke="#000000" stroke-miterlimit="10" x1="-4.222" y1="281.979" x2="28.101" y2="305.213"/>
<line fill="none" stroke="#000000" stroke-miterlimit="10" x1="-4.222" y1="328.444" x2="31.131" y2="347.637"/>
<g>
	<rect x="-4.222" y="-39.739" fill="none" stroke="#000000" stroke-miterlimit="10" width="577.779" height="461.617"/>
</g>
<rect x="158.404" y="38.545" fill="none" stroke="#000000" stroke-miterlimit="10" width="54.052" height="248.484"/>
<rect x="284.667" y="34.808" fill="none" stroke="#000000" stroke-miterlimit="10" width="52.222" height="252.222"/>
</svg>
