<svg version="1" xmlns="http://www.w3.org/2000/svg" width="1280" height="1024"><g fill="#2EA7E0"><path d="M439 44l-2 6c-2 2-5 3-8 3s-5-1-7-3c-2-1-3-4-3-6v-2h5v2l1 4 4 1 5-1 1-4c0-1 0-2-2-3-1-2-2-3-4-3l-7-4-2-5c0-3 1-5 3-6l6-3c4 0 6 1 7 3 2 2 2 4 2 6h-4l-1-3c-1-2-2-2-4-2l-3 1-2 3 1 3 6 3 6 4c2 2 2 4 2 6zM464 53h-4V30h-1l-4 23h-3l-5-23v23h-4V21h6l4 21h1l4-21h6v32zM487 24h-7v29h-5V24h-7v-3h19v3zM525 29l-2 4h11v4l-5-1h-28c0 10-2 18-7 22l-3-3c3-3 5-7 6-11V33h22l4-9 5 2-3 3zm-8-9h16v3h-35v-3h15l-1-5 4-1 1 6zm-5 11l-4 2-4-7 3-2 5 7zM549 22l-5 7h6l3-6 4 2-4 5-7 11 9-1v3a75 75 0 0 0-13 2l-1-4 4-3 4-6-8 1-2-4 5-5 4-9 4 2-3 5zm8 28a187 187 0 0 0-15 4l-3-4a149 149 0 0 0 18-3v3zm7-29l-1-6 5 1-1 3v8l7-2 6-1 1 3-7 1-7 2 1 5 7-2 7-1 1 3-7 1-8 2 2 7a29 29 0 0 0 6-7l5 3-4 3-5 4 4 5h3l1-4 4 2c-2 5-4 8-7 7l-8-8-5 4-6 4-3-4a38 38 0 0 0 12-7l-2-9-8 2v-4l7-1v-5l-7 2-1-4 8-1v-6zm6-3l3-1 4 4-3 2-4-5zM608 30c0 3-1 6-3 7-2 2-4 3-7 3h-6v13h-4V21h10c3 0 5 0 7 2s3 4 3 7zm-5 0l-1-5-5-1h-5v12h5l5-1 1-5zM624 53h-5V21h5v32zM655 44l-2 6c-2 2-5 3-8 3s-5-1-7-3c-2-1-3-4-3-6v-2h5v2l1 4 4 1 5-1 1-4c0-1 0-2-2-3-1-2-2-3-4-3l-7-4-2-5c0-3 1-5 3-6l6-3c4 0 6 1 7 3 2 2 2 4 2 6h-4l-1-3c-1-2-2-2-4-2l-3 1-2 3 1 3 6 3 6 4c2 2 2 4 2 6zM692 19h-10l-1 4h18v3h-19l-1 4h16l9-1v4l-9-1h-17l-2 4h22v22h-4v-2h-19v2h-4V41l-9 7-3-3a36 36 0 0 0 15-13h-7l-7 1v-4l7 1h8l2-4h-11v-3h11l1-3a113 113 0 0 0-14 1l-1-4a217 217 0 0 0 35-3l3 4-9 1zm2 22v-2h-19v2h19zm0 6v-3h-19v3h19zm0 6v-3h-19v3h19zM725 40l-3 2-3-6v22h-4V37l-5 10-3-3 5-6 3-10h-6v-3h6v-5-5h4v10h6v3h-6v7l3-2 3 7zm5 2l-2 8-4 8-4-3c3-2 4-5 5-8l2-8V28v-9l11-1 9-2 3 4-11 1-8 1v6h17l-2 10-4 10 10 7-3 3-9-7a39 39 0 0 1-10 8l-3-3 6-4 5-4c-2-2-3-5-3-7l-3-10h-1l-1 11zm7-3l3 6 4-14h-9l2 8z"/></g><path fill="none" stroke="#2EA7E0" d="M1013 16h210v68h-210z"/><g fill="#2EA7E0"><path d="M1023 34v-5l-2 2-1-1 3-2v-5h1v10l-1 1zm-2-9l1 1v1c0 1 0 0 0 0l-1-2zm7-2l-1 1v3h3v-1l1 1h-3c0 3 2 5 3 6h-1l-2-6h-1c0 3-1 6-3 7 2-2 3-4 3-7h-3 3v-4h1zm0 1h2v1c0 1 0 1 0 0l-2-1zM1037 23h1v2h3l1-1 1 1h-5l3 3 2 1h-1a7 7 0 0 1-4-4l-1 3h1l1 1h-1c0 1 0 0 0 0l-2-1-4 2v-1l3-1 2-3h-3-1 4v-2zm-3 7v2c0 1 0 0 0 0h-1c0-1 0 0 0 0l1-2zm1 2v-2h2-1v2l1 1h2l1-1v-1 1l1 1h-4l-2-1zm2-2v-1l1 1 1 1h-1c0 1 0 0 0 0l-1-1zm4 0l1 1 1 1h-1c-1 0 0 0 0 0l-1-2zM1047 32l2-2a171 171 0 0 1-2 3l-1-1s1 0 0 0v-5h-1 1l1-1 1 1h-1v5zm-1-8v-1l1 1 1 1h-1l-1-1zm7-1h1v1l-2 2h1l1-1 1 1h-1v3h-1v4h1l1-1v-1 1l1 1h-3l-1-1v-3h-1l-1 3-3 2 3-2v-3h-1v-2-2l1 1h2l1-3zm-4 0h1l1 1v1h-1l-1-2zm1 3v2h3v-2h-3zM1061 28v2l-1 1v-1h-2v1a116 116 0 0 0 0-7h3v4zm-3-4v3h2v-3h-2zm0 3v2h2v-2h-2zm1 7l2-2 1-2v-3-4l1 1h3v-1l1 1h-1v8c1 1 0 1-1 2l-1-1v-1l1 1 1-1v-3h-3l-1 3-3 2zm4-7v2h3v-2h-3zm0-3v2h3v-2h-3zM1072 27v1h-1l-1-1h2zm0 5h-1-1l1-1h1v1z"/></g><g fill="#2EA7E0"><path d="M1025 43v8h1-3 1v-6-1h-1 1l1-1zM1029 51h-1l1-1h1v1h-1zM1037 46v-1l1 1h-1v5h3v-8h-5 8l1-1 1 1h-5v4h3v-1l1 1h-4v4h4l1 1h-9-1l-1-1h3v-5zM1048 44h3v-2h1v2h5l-1 2h-1l1-2h-8v1l-1 1v-1l1-1zm5 7h2v-2h-3v3l-1 1v-4h-2v3h-1v-2-2h3v-1h-1v1h-1v-2-1h5l1 1h-1v2-1h-2v1h3l1 1h-1v3l-2-1zm-4-9l1 1v1l-1-1v-1zm1 4v1h4v-1h-4zm4-4h1l-1 1-1 1a8 8 0 0 0 1-2zM1061 46v1h-1v-1c0-1 0 0 0 0h1zm0 5h-1v-1h1v1z"/></g><g fill="#2EA7E0"><path d="M1028 77v1l-2 1h-2v-2h1v2h1l1-1 1-1-1-2h-2l2-1v-1-1l-1-1h-1v2h-1v-1l1-1h2l1 2v1l-1 1 1 1v1zM1031 79h-1v-1h1c1 0 0 0 0 0v1zM1038 75h7-3v4h4v1h-10v-1h5v-4h-2l-1 1v-1zm7-2v-1h-8v1h-1l1-1v-1h9l1 1-2 1zm-4 0h-1l-4 2 2-1 2-2 1 1zm-1-4l2 1v1h-1l-1-1v-1zm2 3l3 1 1 1v1h-1a10 10 0 0 0-3-3zM1049 71l1 1h-1v-1zm1-2l1 1v1h-1l-1-1 1-1zm3 5v-2h1v2h1l1-1 1 1h-3v1l2 2v0l-1-1-1-1v4h-1v-4l-3 3 1-2 2-2h-3 3zm2 5h2c1 0 0 0 0 0v-8h-5v-1h5l1 1v8l-1 1-2-1zM1064 72v1h-1l-1-1h1v-1l1 1zm0 6v1h-1l-1-1 1-1h1v1z"/></g><g fill="#2EA7E0"><path d="M1137 46l-1-1-1-1-1 1v2h-1v-1l1-1 1-1 2 1v2l-1 1a41 41 0 0 0-3 3h4v-1h1l-1 2h-4l1-2 1-1 1-2 1-1zM1140 52h-1v-1h1l1 1h-1zM1150 49v3h-3v1h-1v-3-2h2v-2h-3 3v-3h1l-1 1v2h1l1-1 1 1h-3v2h2v1zm-3-1v3h2v-3h-2zm5-5h1l-1 3h3v-1l1 1h-1l-2 5 3 2h-1l-2-2-4 2 4-2-1-5-2 2 2-5zm0 3l1 4 1-4h-2zM1159 47l1 1 1 1-1 1-1 1-1-1h1l1-1v-1l-1-1 1-3h-2v9a243 243 0 0 0 0-10v1h2v-1l1 1h-1l-1 3zm3 0h5v3h-3v1h3v-1l1 1h-4v0h-2l-1 1-1-1h4v-1h-2a37 37 0 0 0 0-3zm3-3l1 1h-1v1h3-6l-1 1-1-1h4l1-2zm-4 0h3l-1-1h1v1h3-6zm1 1v-1l1 1v1l-1-1zm0 2v1h4v-1h-4zm0 2v1h4v-1h-4zM1172 47v1h-1c-1 0 0 0 0 0v-1h1zm0 5h-1c-1 0 0 0 0 0v-1h1v1z"/></g><g fill="#2EA7E0"><path d="M1138 78l1 1h-3l1-1c0-1 0 0 0 0v-2h-3l3-5h1v5h1-1v2zm-1-6l-3 4h3v-4zM1141 79l-1-1h2v1h-1zM1151 72v-3l2 1h-1v2h2l1-1 1 1h-4v2h3l1-1 1 1h-9l-1 1-1-1h5v-2h-2l-2 2v-1a9 9 0 0 0 2-3h1l-1 1v1h2zm-2 8a66 66 0 0 0 0-5v1h5l1-1v5h-1v-1h-5v1zm0-4v3h5v-3h-5zM1163 71h-4 1-1l-1-1h3l-1-1 1 1h1v-1l1 1h1l1 1h-2zm-3 3a9 9 0 0 0 0-2l-1 1a6 6 0 0 0 1-2h1l-1 1h3l1-1v3l-2 1v-1h1v-2h-3 2l1 1h-1v1h-2zm4 1l-1-1h1v1h4l1 1h-9-1v-1h5zm-4 1h6l1 1h-6l-1-1zm0 4v-1-1h7v2h-7zm0-7h2-2zm0 4h7-5l-1 1-1-1zm1 1v1h5v-1h-5zm3-3l2-2-1-2-1 2 1-2v-2l1 1v1h2l1-1v1h-1l-1 2 2 1v1l-3-1-2 1zm2-4v2l1-2h-1zM1173 74v1l-1-1 1-1v1zm0 4v1h-1v-1c0-1 0 0 0 0h1z"/></g><path fill="#094" d="M1070 43h32v10h-32z"/><path fill="#E60012" d="M1177 43h32v10h-32z"/><path fill="#898989" d="M1070 69h32v10h-32z"/><path fill="#FFE200" d="M1179 69h32v10h-32z"/><path fill="none" stroke="#2EA7E0" stroke-miterlimit="10" d="M37 193h41v35H37zM17 201h20v18H17zM27 271h58v28H27zM46 255h21v16H46z"/><path fill="none" stroke="#2EA7E0" stroke-miterlimit="10" d="M28 227h58v28H28zM45 300h21v16H45zM17 316h82v86H17z"/><path fill="none" stroke="#2EA7E0" stroke-miterlimit="10" d="M37 316h19v11H37z"/><path fill="none" stroke="#2EA7E0" stroke-miterlimit="10" d="M36 326h19v11H36zM36 337h19v11H36zM36 348h19v11H36zM36 359h19v11H36zM36 370h19v11H36z"/><path fill="none" stroke="#2EA7E0" stroke-miterlimit="10" d="M36 380h19v11H36zM36 391h19v11H36zM17 316l20 10M37 337l-20-8M36 348l-19-7M36 359l-19-7M36 369l-20-7M36 380l-19-7M35 391l-19-7"/><g fill="#2EA7E0"><path d="M76 342l1 1h-2v-6l-2 6-2-6v6h1-2 1v-6-1h-1 2l1 5h1l1-5h2l-1 1v5zM74 349h2v4h-2l-2-1-1-2 1-3 2-1 2 1-1 1v-1l-1-1-1 1-1 3 1-1h1zm-2 1v2l2 1h1l1-2-1-1-1-1h-1l-1 1zM76 358l-2 1 2 1h0l-2-1v3h-1v-1l1-2-2 1h-1 1l1-1-1-1h-1 1l2 1-1-2 1-1v3l2-1h0zM76 372v1l-2 1-2-1-1-1v-1l2-1-2-1v-1l1-1h4v2l-1 1 1 1v1zm-4 0v1h3l1-1-1-1-2-1-1 1v1zm4-4l-1-1h-3v2l2 1 1-1 1-1z"/></g><g fill="#2EA7E0"><path d="M46 239h-1 2l3 1 1 2-1 3-3 1h-2v-1h1v-6zm4 3l-1-2-2-1v6h2l1-3zM58 246h-2v-1h0l-2-3v4h-2v-1h1v-6h-1 2v3l2-2v-1h1l-2 2 2 4h1v1zM59 239h6v1l-1-1h-3v3h2v-1h1v2h-1v-1h-2v3h3l1-1v2h-6v-1h1v-6h-1z"/></g><g fill="#2EA7E0"><path d="M50 285h-2l-1-2 1-1h4v2l-1-2h-3v2l2 1 2 1 1 1-1 1-2 1h-1l-1-1v1l-1-2 1 1 2 1 1-1 1-1-1-1-1-1zM56 286v2h1v1h-3v-1h1v-6h-1 5l1 2-1 1-2 1h-1zm1-1h1l1-1v-1l-2-1h-1v3h1zM62 282h4-1v6h1v1h-4v-1h2v-6h-2z"/></g><path fill="none" stroke="#2EA7E0" stroke-miterlimit="10" d="M45 402h21v16H45zM25 418h48v27H25zM39 445h18v15H39z"/><g fill="#2EA7E0"><path d="M43 435h-2v1c-1 0-1 0 0 0v1h-2 1v-1l2-6h1l1 6 1 1h-2 1v-1l-1-1zm-1-4l-1 3h2l-1-3zM51 434l-1 2-2 1-2-1v-2-3l2-1 2 1 1 3zm-5 0l1 2 1 1 1-1 1-2v-3h-2-1l-1 3zM52 431v-1h4v1h-2v5l1 1h1-4 2v-6h-2z"/></g><path fill="none" stroke="#2EA7E0" stroke-miterlimit="10" d="M16 460h68v16H16z"/><path fill="none" stroke="#2EA7E0" stroke-miterlimit="10" d="M33 460h16v16H33zM16 460l17 17"/><g fill="#2EA7E0"><path d="M61 471v1h-2v-1h1v-5l-2 6-1-6v6h-1v-6-1h1l1 5h1l1-5h1v6zM65 467l1 1 1 1-1 2-1 1-2-1-1-2 1-3 2-1h1v1h-1 1l-1-1-1 1-1 2h1l1-1zm-2 2v2h3v-2-1h-2l-1 1zM72 468h-1l1 1h1v1h-1v-1l-1-1v3h-1v-3l-1 1v1h-1v-1h1l1-1h-2v-1h1l1 1v-1-1h1v1l-1 1 2-1h1l-1 1zM77 465v6h1v1h-3v-1h1v-5h-1l1-1h1z"/></g><path fill="none" stroke="#2EA7E0" stroke-miterlimit="10" d="M39 477h18v15H39zM24 492h48v95H24z"/><g fill="#2EA7E0"><path d="M48 517h1v1h7v-1 4h-2-1v-1l-1 1-2 1-1-1-1-1v-3zm1 3v1h3v-2h-3v1zm5 1l1-1 1-1h-3v1l1 1zM48 525v-2h1v1h7v-1h-2v-1l2 1v3l-2 1v-1h2v-1h-8zM49 529v1l1 1h6v-1 1h-6l-1-1-1-1 1-1h6l1-1v2-1h-7v1zM56 544h-7v1h-1v-3h1v1h6v-1 1h1v1zM54 550l1-1 1-1-1-1h-1v0h2v3h-2-1l-1-1a38 38 0 0 0-3-2v3h1-2v-3h2l1 1 2 1 1 1zM53 554v1h-4l-1-2 1-1h1-1v1h-1l1 1 2 1 1-1 1-1-1-1h4v3h-1v-3h-3l1 1v1zM50 560h6v-1 2-1h-8l7-3h-7v-1h1v1h6l1-1v1l-6 3z"/></g><path fill="none" stroke="#2EA7E0" stroke-miterlimit="10" d="M38 586h18v15H38zM23 603h48v21H23z"/><g fill="#2EA7E0"><path d="M42 616h-2v2h-2v-1h1l2-4 1-1 1 5h1v1h-2v-1h1l-1-1zm-1-3l-1 3h2l-1-3zM50 615l-1 2-2 1-2-1v-2-2l2-1 2 1 1 2zm-5 0l1 2h2l1-2v-2h-2-1l-1 2zM51 613h4-2v4h2v1h-4v-1h2v-4h-2z"/></g><path fill="none" stroke="#2EA7E0" stroke-miterlimit="10" d="M30 637h33v45H30zM38 625h18v12H38z"/><g fill="#2EA7E0"><path d="M49 644v1h-7-1v1-2 1h8v-1zM45 652h-3-1v-1h8v2l-1 1h-3v-2zm0 1l2 1 1-1h1v-1h-4v1zM41 660l1-1h6l1 1-1 1-3 1h-2l-2-1v1h-1v-1h1v-1zm0 1l2-1c1 0 0 0 0 0h-2v1zm2-1v1h-1 6l1-1-1-1h-3a20 20 0 0 0-2 0v1zM41 668l1-1 3-1 3 1 1 1v1h-2 1l1-1-1-1h-6l-1 1 1 1h0l-1-1z"/></g><path fill="none" stroke="#2EA7E0" stroke-miterlimit="10" d="M39 682h18v27H39z"/><g fill="#2EA7E0"><path d="M46 691h-3-1v-1h6v-1l-6-2 2 1 4 1h3v1l1 1-1 1v-1-2h-2v3h-1v-1h-2l-1 1h-1l2-1zm1-4l1 1-1-1h-5l1-1v1h3l-1-1h1l1 1h2v-1h1v1h2-2v1h-1v-1h-2zM48 695h-6l-1-1a414 414 0 0 0 3-1l5 1v-1h1v1h2v1h-2l-1 1v-1h-1l-1 1h-1v-1h2zm0 4l-3-1-3 2v-1l2-1-2-3 3 3 3-1a35 35 0 0 1-4-1l-2-1 3 1h6v1l1 1v1h-1v-2h-2v2h-1zm0-2l-3 1 3 1v-2zM48 702l-6 1-1-1a390 390 0 0 0 3-1l5 1v-1 1h3v1-1h-3v1h1l-1 1v-2h-1l-1 1-1 1v-1l2-1zm3 2h-4l-5-1 5 1h5-1v2h1l-1 1v-1h-8v1h2-2v1l-1-1v-1h9v-2z"/></g><path fill="none" stroke="#2EA7E0" stroke-miterlimit="10" d="M24 709h54v21H24zM49 709v21"/><g fill="#2EA7E0"><path d="M31 720v2l-1 1v-3c-1 1-2 2-5 2l4-2h-2-1 4v-1h1v1h3l1-1 1 1h-5l5 2h-1l-4-2zm-5-3h2v-1h1-1v1h2v-1l1 1h-1v2h-1-1 1v-1l1-1h-2l-2 3h-1l3-3h-2zm6 2v-1-2h3v3h-1v-1h-2v1zm0-2v1h2v-1h-2zM38 716h9l-2 1-2 1v1h3l1-1 1 1h-5v3l-1 1-2-1h2v-3h-5 5v-2l1 1 2-2h-5-2z"/></g><g fill="#2EA7E0"><path d="M57 720v2l-1 1v-3c-1 1-2 2-5 2l5-2h-3-1 4v-1h1v1h3l1-1 1 1h-5l5 2h-1l-4-2zm-5-3h2v-1h1-1v1h2v-1l1 1h-1v2h-1-1 1v-1l1-1h-2l-2 3 2-3h-2zm6 2v-1-2h3v3h-1v-1h-2v1zm0-2v1h2v-1h-2zM65 716h8l-2 1-2 1v1h3l1-1 1 1h-5v3l-1 1-2-1h2v-3h-5 5v-2l1 1 2-2h-5-1z"/></g><path fill="none" stroke="#2EA7E0" stroke-miterlimit="10" d="M20 745h58v21H20z"/><g fill="#2EA7E0"><path d="M34 752v1l-1 6-1-4-1 4-1-6v-1h1v5l1-3v-1-1h0v1l1 4v-4-1h1zM35 752h1v7h1-2 1v-6-1h-1zM39 756v3h1-2 1v-6-1h-1 2l1 1 1 1-1 1-1 1h-1zm1 0l1-1v-1-1l-1-1h-1v4h1z"/></g><g fill="#2EA7E0"><path d="M61 752v1l-1 6-1-4-1 4-1-6v-1h1v5l1-3v-1-1h-1 2-1v1l1 4v-4-1h1zM62 752h2-1v7h1-2 1v-6-1h-1zM66 756v3h1-2 1v-6-1h-1 2l1 1 1 1-1 1-1 1h-1zm1 0l1-1v-1-1l-1-1h-1v4h1z"/></g><path fill="none" stroke="#2EA7E0" stroke-miterlimit="10" d="M49 746v21M8 173h95v609H8z"/><path stroke="#2EA7E0" stroke-miterlimit="10" d="M55 154h-3v5h1-2v-1h1l1-11h1l2 11v1h-2 1v-5zm-1-6l-1 6h1v-6z"/><path fill="none" stroke="#2EA7E0" stroke-miterlimit="10" d="M166 193h41v35h-41zM146 201h20v18h-20z"/><path stroke="#2EA7E0" stroke-miterlimit="10" d="M180 159l1-1v-10l-1-1h3l1 1 1 2v1l-2 1 2 2v4l-2 1h-3zm4-9v-2l-2-1v1h-1v4h3v-2zm-1 9l1-1v-2-3h-3v5h1v1h1z"/><path fill="none" stroke="#2EA7E0" stroke-miterlimit="10" d="M156 288h58v28h-58zM175 272h21v16h-21zM156 243h58v28h-58zM174 316h21v16h-21zM144 332h82v65h-82z"/><path fill="none" stroke="#2EA7E0" stroke-miterlimit="10" d="M164 332h19v11h-19zM164 343h19v11h-19zM164 354h19v11h-19zM164 365h19v11h-19z"/><path fill="none" stroke="#2EA7E0" stroke-miterlimit="10" d="M164 375h19v11h-19zM164 386h19v11h-19zM144 332l20 11M165 354l-20-8M164 364l-19-7M163 375l-19-7M164 386l-20-8M164 397l-20-7"/><g fill="#2EA7E0"><path d="M206 352v1h-2v-1h1v-5l-2 6h-1l-1-6v6h-1v-7h1l2 5 1-5h2v6zM206 361l-1 1-2 1-2-1h-1v-1h1v1h1l1 1 1-1 1-1-1-1-2-1h2v-1-1l-2-1-1 1v1l-1-1 1-1h3l1 1v1l-2 1 2 1 1 1zM205 368l-2 1h3v1h-1l-2-1v2h-1v-1l1-1-2 1h-1v-1h3l-2-1h-1v-1h1l2 2-1-2 1-1v3l2-2h1v1c0 1 0 0 0 0h-1zM203 379h2l1 2-1 2h-2l-2-1-1-2 1-3 2-1 2 1v1h-1v-1l-1-1-1 1-1 3 1-1h1zm-2 1l1 2 1 1h1l1-2-1-1-1-1h-1l-1 1z"/></g><g fill="#2EA7E0"><path d="M180 260h1-2v-6l-2 6-2-5v5h1-2 1v-6h-1v-1h2l1 6 2-6h2v1h-1v6zM183 257v3h1-3 1v-6h-1v-1h4l2 1 1 1-1 2h-4zm2 0l1-1 1-1-1-1h-3v3h2zM194 260h1-2v-6l-2 6-2-5v5h1-2 1v-6h-1v-1h2l1 6h1l1-6h2v1h-1v6z"/></g><g fill="#2EA7E0"><path d="M178 302l-2-1v-1-1l2-1h1l1 1 1-1v2l-1-1h-2-1l-1 1 1 1h2l2 1v3h-4-1v-2l1 2h3v-2l-2-1zM184 302v3h1-3 1v-6h-1v-1h4l2 1 1 1-1 2h-4zm1 0l2-1 1-1-1-1h-3v3h1zM190 299v-1h5v1h-2v6h2-5 2v-6h-2z"/></g><path fill="none" stroke="#2EA7E0" stroke-miterlimit="10" d="M174 445h21v16h-21zM160 461h48v27h-48zM174 488h18v15h-18z"/><g fill="#2EA7E0"><path d="M179 477h-2l-1 2h1v1h-2v-1h1l1-6h1l2 6h1v1h-2v-3zm-1-3l-1 3h2l-1-3zM186 476v3l-2 1-2-1-1-3 1-2 2-1 2 1v2zm-4 0l1 3 1 1 1-1 1-3-1-2-1-1-1 1-1 2zM188 474v-1h4v1h-2v5h2v1h-4v-1h1v-5-1h-1z"/></g><path fill="none" stroke="#2EA7E0" stroke-miterlimit="10" d="M149 503h68v16h-68zM164 397h19v16h-19zM148 503l17 16"/><g fill="#2EA7E0"><path d="M178 514h1-2v-5l-1 5h-1l-1-5v5h-1 1v-6h-1 1l2 4 1-4h2-1v6zM182 510l1 1 1 1-1 2h-1l-2-1-1-2 1-3h4l-1 1v-1h-2l-1 3 1-1h1zm-2 1l1 2 1 1 1-1v-1-1l-1-1-1 1h-1zM189 510l-1 1h1l1 1h-1l-1-1v2h-1v-1l1-1-2 1h-1v-1h2l-1-1h-1v-1h1v1l1 1v-2-1h1v3l1-1v-1h1v1h-1zM194 508v6h1-3 1v-5-1h-1 2z"/></g><path fill="none" stroke="#2EA7E0" stroke-miterlimit="10" d="M173 519h18v15h-18zM159 535h48v95h-48z"/><g fill="#2EA7E0"><path d="M178 560v1h7v-1h1v3l-1 1-1 1-1-1-1-1-1 2h-1l-2-1v-4zm0 3v1h3l1-1v-1h-4v1zm6 1l1-1v-1h-3v1l2 1zM178 568v-1h7v-1h-1v-1l2 1v3l-2 1v-1h1v-1h-7v1zM178 572v1l2 1h5v-1h1v2h-1v-1h-5l-2-1v-1-1h7v-1h1v2h-1v-1h-5l-2 1zM186 587h-8v1-2l1 1h6v-1 1h1zM184 593l1-1v-1l-1-1v1h-1v-1h2l1 2-1 1h-3a38 38 0 0 0-4-3v2l1 1h1-2v-3h1l2 2h1l2 1zM183 597l-1 1h-4v-2-1h1l-1 1v1l2 1 2-1v-1l-1-1h5v3h-1v-3h-3l1 1v1zM180 603h5v-1h1v2h-1v-1h-7l7-3h-7v1-2 1h7v-1h1v1l-6 3z"/></g><path fill="none" stroke="#2EA7E0" stroke-miterlimit="10" d="M174 630h18v15h-18z"/><path fill="none" stroke="#2EA7E0" stroke-miterlimit="10" d="M159 644h48v21h-48z"/><g fill="#2EA7E0"><path d="M177 657h-2v2h1-2v-1h1l1-4 1-1 2 5v1h-2 1v-1l-1-1zm0-3l-1 3h1v-3zM185 656v2l-2 1-2-1-1-2 1-2h4v2zm-4 0v2l2 1 1-1v-2-2h-3v2zM187 654h3-1v5h1-3 1v-1c0-1 0 0 0 0v-4h-1z"/></g><path fill="none" stroke="#2EA7E0" stroke-miterlimit="10" d="M160 678h22v45h-22zM174 666h18v12h-18z"/><g fill="#2EA7E0"><path d="M173 685v1c0-1 0 0 0 0h-7v1-2 1h7v-1zM169 693h-3v-1 1h7v-1 3h-2-1l-1-1v-1zm1 1l1 1h2v-2h-3v1zM165 701l1-1h6l2 1-2 2h-5l-1-1h-1v1h1-1l-1-1h1v-1zm1 1l1-1c0-1 0 0 0 0h-1v1zm2-1l-1 1h-1 6l1-1h-1l-2-1a20 20 0 0 0-3 0l1 1zM165 709l1-1 3-1 3 1 2 1-1 1h1l-2 1-1-1h2v-1l-1-1h-5l-1 1v1h2v1l-2-1-1-1z"/></g><path fill="none" stroke="#2EA7E0" stroke-miterlimit="10" d="M174 724h18v27h-18z"/><g fill="#2EA7E0"><path d="M180 733h-4 4l1-1v1h2v-2c-3 0-6 0-7-2l3 1 3 1h4-1l1 2 1 1h-1v-1l-1-2h-2v3h1l-1 1v-2h-2l-1 1h-1-1 1l1-1zm2-4v1l-1-1h-4-1l1-1v1h4l-1-1h1v1h3v-1 1h3l-1 1v-1h-2v1h1-1v-1h-2zM182 737h-6v-1a414 414 0 0 0 3-1l5 1v-1 1h3l-1 1h-2v1-1h-1l-1 1h-1c-1 0-1 0 0 0l1-1zm1 4l-4-1-2 2h-1c1-1 1-2 3-2l-3-2 3 2 4-1a35 35 0 0 1-5-1l-2-1 3 1h7l-1 1 1 1 1 1-1 1-1-1v-2h-2v2h1l-1 1v-1zm0-2l-4 1 4 1v-2zM182 745h-6v-1a390 390 0 0 0 2-1l6 1v-1 1h3l-1 1h-2v1-1h-2v1h-1v-1h1zm3 2h-4l-5-2 5 1h5v2l-1 1v-1h-7l-1 1h2v1h-1-1v-1c0-1 0 0 0 0v-1h8v-1z"/></g><path fill="none" stroke="#2EA7E0" stroke-miterlimit="10" d="M158 751h54v21h-54zM183 751v21"/><g fill="#2EA7E0"><path d="M165 762v0l-5 3v-1l4-2h-4 5v-1h1l-1 1h5-4l4 2h-1l-3-2h-1zm-5-3h2v-1h1v1h1v-1l1 1-1 2h-1-1 2v-1-1h-1l-3 3 2-3h-2zm6 2v-1-2l1 1h2v-1l1 1h-1v2h-3zm1-2v1h2v-1h-2zM173 758h7l1 1h-1l-3 1h1-1v1h3l1-1 1 1h-5v3l-1 1-1-1h1l1-1v-2h-4-2 6v-2 1l3-2h-6-1z"/></g><g fill="#2EA7E0"><path d="M191 762v0l-5 3v-1l4-2h-4 5v-1h1l-1 1h5-4l4 2h-1l-3-2h-1zm-5-3h2v-1h1v1h1v-1l1 1v2h-1-1-1 2v-1-1h-1l-3 3 2-3h-2zm6 2v-1-2l1 1h2v-1l1 1h-1v2h-3zm1-2v1h2v-1h-2zM199 758h7l1 1h-1l-3 1h1-1v1h3l1-1 1 1h-5v3l-1 1-1-1h1l1-1v-2h-4-1 5v-2 1l3-2h-7z"/></g><path fill="none" stroke="#2EA7E0" stroke-miterlimit="10" d="M174 227h21v16h-21zM144 397h82v16h-82zM144 397l21 16"/><g fill="#2EA7E0"><path d="M198 407v1h-2 1v-6l-2 6h-1l-1-5v5h-1v-7h1l2 5 2-5h1v6zM202 404h2l1 2-1 1-2 1-2-1-1-2 1-3 3-1 1 1v1h-1v-1h-2l-1 3 1-1h1zm-2 1l1 2 1 1 2-1v-1-1l-2-1h-1l-1 1zM211 404l-1 1h2v1h-1l-2-1 1 1v1h-1v-2l-2 1h-1v-1h3l-2-1h-1v-1h1l2 1v-1-1h1v1l-1 1 2-1a1 1 0 0 1 1 0v1c0 1 0 0 0 0h-1zM217 401v7h2-5 2v-5-1h-2 2l1-1z"/></g><path fill="none" stroke="#2EA7E0" stroke-miterlimit="10" d="M164 413h19v16h-19z"/><path fill="none" stroke="#2EA7E0" stroke-miterlimit="10" d="M144 413h82v16h-82zM144 413l20 16"/><g fill="#2EA7E0"><path d="M198 424h-2 1v-5l-2 5h-1l-1-5h-1v5h1-2 1v-6h-1 2l2 5 1-5h2v6zM202 420l2 1 1 1-1 2h-4l-1-3 1-2 3-1h1v1c0 1 0 0 0 0h-1v-1h-1l-1 1-1 2 1-1h1zm-2 2l1 1 1 1h1l1-2-1-1h-1-1l-1 1zM211 420l-2 1h2l1 1h-1l-2-1 1 2h-1v-2l-2 1h-1l1-1h2l-2-1h-1 1l2 1v-2h1l-1 2 2-1a1 1 0 0 1 1 0h-1zM217 418v6h1-4 2v-5h-2v-1h3z"/></g><path fill="none" stroke="#2EA7E0" stroke-miterlimit="10" d="M164 429h19v16h-19z"/><path fill="none" stroke="#2EA7E0" stroke-miterlimit="10" d="M144 429h82v16h-82zM144 429l20 16"/><g fill="#2EA7E0"><path d="M197 440h1-3 1v-5l-2 5-2-5v5h1-2 1v-6h-1 2l1 5 2-5h2-1v6zM202 436l2 1v3h-2l-3-1v-2l1-2 2-1h2v1h-1v-1h-3v3l1-1h1zm-2 2v1l2 1h1v-2-1l-1-1-1 1-1 1zM211 436l-2 1h2l1 1h-1l-2-1v2h-1l1-2-2 1h-1l1-1h1l-1-1h-1v-1a1 1 0 0 1 1 1l2 1-1-2v-1h1v3l2-1a1 1 0 0 1 0-1l1 1h-1zM216 434v5l1 1h1-4 1v-5-1h-1 2z"/></g><path fill="none" stroke="#2EA7E0" stroke-miterlimit="10" d="M182 678h22v45h-22z"/><g fill="#2EA7E0"><path d="M187 688l1-1 3-1 3 1 1 1-1 1-3 1h-2l-2-1v1l-1-1c0-1 0 0 0 0h1v-1zm0 0h2l-1-1-1 1zm2 0l-1 1h6l1-1-1-1h-3a20 20 0 0 0-3 0h1v1zM190 708v-2h-3v-1 1h1l7 1-7 1-1 1v-1h3zm4-1l-4-1v2l4-1z"/></g><path fill="none" stroke="#2EA7E0" stroke-miterlimit="10" d="M137 173h95v609h-95zM300 190h41v35h-41zM280 198h20v18h-20z"/><path stroke="#2EA7E0" stroke-miterlimit="10" d="M317 159l-2-1v-5-4c1-2 2-2 3-2h1l1 3h-1v-2l-2-1-1 2-1 4 1 4 1 2 2-1v-2h1l-1 2-2 1z"/><path fill="none" stroke="#2EA7E0" stroke-miterlimit="10" d="M309 269h21v16h-21zM290 241h58v28h-58z"/><g fill="#2EA7E0"><path d="M310 251h-1v-1h2l3 1 1 3-1 2-3 1h-2 1v-6zm4 3l-1-3h-2-1v6h1l2-1 1-2zM322 257h-2v-1l-2-2v3h-2 1v-6h-1v-1h2v4l2-3v-1h2v1h-1l-2 2 2 4h1zM323 251v-1h5l1 2-1-1h-3v2h2v-1h1v3h-1v-1h-2v3h3l1-1v1h-6 1v-6h-1z"/></g><path fill="none" stroke="#2EA7E0" stroke-miterlimit="10" d="M309 224h21v16h-21zM285 285h58v28h-58zM303 313h21v13h-21zM274 326h82v30h-82zM274 326l20 7M294 341l-20-5M293 349l-19-5M293 356l-19-5"/><g fill="#2EA7E0"><path d="M307 299l-2-1v-1l1-1 2-1h1v1h1v-1 2l-1-1h-2-1v2h2l2 1v3h-4-1v-2l1 2h3l1-2h-1l-2-1zM313 299v3h1-2v-7h3l2 1 1 1-1 2h-4zm2 0l1-1 1-1-1-1h-2-1v3h2zM320 296v-1h4v1h-1-1v6h2-4 1v-6h-1z"/></g><path fill="none" stroke="#2EA7E0" stroke-miterlimit="10" d="M302 462h21v16h-21zM288 478h48v27h-48zM302 505h18v15h-18zM302 549h18v15h-18zM288 564h48v89h-48zM303 653h18v15h-18zM287 668h48v21h-48z"/><g fill="#2EA7E0"><path d="M306 682h-2v2h-1l2-5h1l2 5h-2 1l-1-2zm-1-2l-1 2h2l-1-2zM314 682l-1 2h-3l-1-2 1-2 2-1 1 1 1 2zm-4 0v2h3v-2-2l-1-1-2 1v2zM316 679h3-1v5h1-3 1v-4-1h-1z"/></g><path fill="none" stroke="#2EA7E0" stroke-miterlimit="10" d="M288 701h22v45h-22zM303 689h18v12h-18z"/><g fill="#2EA7E0"><path d="M302 709v2-1h-7v1h-1v-2h1v1h7v-1zM298 717h-4v-1h8v3h-2-1l-1-1v-1zm0 0l1 1h3v-1h-4zM294 725l1-1 3-1 3 1 1 1-1 1-3 1-2-1h-2v0h-1l1-1zm1 0h1c1 0 0 0 0 0v-1h-1v1zm2 0h-1l-1 1h6l1-1-1-1h-3a20 20 0 0 0-2 0l1 1zM294 733l1-2h6l1 2v1h-2 2v-1l-1-1-3-1-2 1-1 1v1h2-2l-1-1z"/></g><path fill="none" stroke="#2EA7E0" stroke-miterlimit="10" d="M311 701h22v45h-22z"/><g fill="#2EA7E0"><path d="M316 712l1-1 3-1 3 1 1 1-1 1h-6-1-1 1-1l1-1zm0 0h2l-1-1h-1v1zm2 0h-1l1 1h5l1-1-1-1h-3a20 20 0 0 0-3 0h1v1zM319 731v-1h-2-1v-1h1l7 2-7 1h-1v1-2 1h1l2-1zm4 0l-4-1v1h4z"/></g><path fill="none" stroke="#2EA7E0" stroke-miterlimit="10" d="M294 326v30M335 326v30M335 326l21 8M356 341l-20-6M355 348l-19-5M356 356l-20-5"/><g fill="#2EA7E0"><path d="M305 338h2-1l-2 3v1l1 1h-3 1v-2l-2-3h-1 3-1l2 3 1-3zM310 340h-2v-1l1-1h4v1l-1-1h-2-1v1l2 1 2 1v1l-2 1h-2-1v-2l1 1 2 1 1-1 1-1h-1l-2-1zM319 339v-1h-3v1h-1l1-1h4v2h-1a46 46 0 0 0-3 2h4v1h-5v-1h1l2-1 1-1v-1zM326 342h1v1h1-4 1v-2h-3l4-3v3h2-2v1zm-1-3l-3 2h3v-2z"/></g><path fill="none" stroke="#2EA7E0" stroke-miterlimit="10" d="M273 356h82v30h-82zM273 356l20 7M293 371l-20-5M293 379l-19-5M292 386l-19-5M293 356v30M335 356v30M335 356l20 8M355 371l-20-6M355 378l-19-5M355 386l-19-5"/><g fill="#2EA7E0"><path d="M305 368h-1 3-1-1l-1 3v2h1-3l1-1v-1l-2-3h-1 3-1l1 3h1l1-3zM310 370h-2v-1-1h5v1l-1-1h-2-1l-1 1h1l2 1 2 1-1 1-2 1h-1-1v-2l1 1 2 1 1-1v-1l-2-1zM319 369v-1h-2-1v1h-1l1-1h3l1 1v1h-1a46 46 0 0 0-4 2h5v1h-5v-1h1l1-1 2-1v-1zM326 372l1 1h-3l1-1v-1h-3l4-3v3h2-2v1zm-1-3l-3 2h3v-2z"/></g><path fill="none" stroke="#2EA7E0" stroke-miterlimit="10" d="M273 386h82v30h-82zM273 386l20 8M293 401l-20-5M293 409l-20-5M292 416l-19-5M293 386v30M335 386v30M335 387l20 7M355 401l-20-5M355 408l-20-5M355 416l-19-5"/><g fill="#2EA7E0"><path d="M305 399v-1h-1 1v1l-2 2v2h1-2 1v-2l-2-2-1-1h2v1l1 2 2-2zM310 401l-2-1-1-1 1-1h4v1l-1-1h-1l-2 1c-1 1 0 0 0 0v1h2l2 1 1 1-1 1h-2-1-1l-1-1 2 1h3v-1l-1-1h-1zM319 399h-1l-1-1h-1l-1 1h1v1h-1l-1-1 1-1h4l1 1-1 1-1 1a46 46 0 0 0-3 2h3l1-1h1l-1 1h-5l1-1 2-1 1-1 1-1zM326 402v1h1-4 2v-2h-4l4-3h1v3h1-1v1zm-1-3l-3 2h3v-2z"/></g><path fill="none" stroke="#2EA7E0" stroke-miterlimit="10" d="M302 417h21v16h-21zM274 433h82v28h-82zM274 433l20 7M294 447l-20-5M293 455l-19-5M293 462l-19-5M294 433v29M335 433v29M335 434l20 7M356 447l-20-5M355 454l-19-5M356 461l-20-4"/><g fill="#2EA7E0"><path d="M302 445h2-1l-2 2v2h1-3 1v-2l-2-2h-1 3-1l2 2 1-2zM307 447l-2-1 1-1h4c1 0 0 0 0 0v1l-1-1h-2-1v1l2 1h2v2h-5v-1l1 1a5 5 0 0 0 3 0l1-1-1-1h-2zM315 445v3l1 1h1-4 1v-4h-1 2zM322 449h-2l-1-2 1-2h4l1 2-1 1-2 1zm0-4h-2v3l2 1 1-1 1-1-1-2h-1zM329 449h-2l-1-2 1-2h4l1 2-1 1-2 1zm0-4h-1l-1 2 1 1 1 1 1-1 1-1-1-2h-1z"/></g><g fill="#2EA7E0"><path d="M300 608l1-1v-4l-1-1h3l2 1-1 2 2 1-2 2-2 1h-2v-1zm2-3c2 0 2-1 2-2l-2-1v3zm0 0v2l1 1 2-1c0-2-1-2-3-2zM308 608l1-1v-5l-2 1h-1v-2h1v1h5l1-1v2l-2-1h-1v5l1 1v1h-3v-1zM321 605l-1 3-2 1-2-1-1-2v-3l-1-1h3l-2 1v2c0 2 1 3 3 3s3-1 3-3v-1l-1-2h-1 3-1v3z"/></g><g fill="#2EA7E0"><path d="M304 497h1l-1-3h-3v2l1 1h-3l1-1 3-6v-1l1 3 1 4 2 1h-3zm-1-6l-2 3h3l-1-3zM316 493c0 3-2 4-5 4-2 0-4-1-4-3s2-5 5-5c2 0 4 2 4 4zm-8 0c0 3 2 4 4 4 1 0 3-1 3-3 0-3-2-4-4-4-1 0-3 1-3 3zM317 497l1-1v-5l-1-1h2l-1 1v5l1 1h-2z"/></g><path fill="none" stroke="#2EA7E0" stroke-miterlimit="10" d="M273 521h82v28h-82zM293 535l-20-5M293 542l-19-5M293 521v28M335 521v28M355 535l-20-5M355 541l-19-4"/><g fill="#2EA7E0"><path d="M302 532h-1 3-1l-1 1-1 2v1h1-3 1v-1l-2-3h-1 3-1l1 2h1l1-2zM307 534h-2v-1-1h5v1l-1-1h-2-1l-1 1h1l2 1 2 1-1 1-2 1-1-1h-1v1-2l1 1h3v-1l-2-1zM315 532v4h2-4 1v-3h-1v-1h2zM322 537l-2-1-1-2 1-1 2-1 2 1v3l-2 1zm0-5l-2 1v3h3v-2-1l-1-1zM329 537l-2-1-1-2 1-1 2-1 2 1v3l-2 1zm0-5l-2 1v3h3v-2-1l-1-1z"/></g><path fill="none" stroke="#2EA7E0" stroke-miterlimit="10" d="M282 755h58v21h-58z"/><g fill="#2EA7E0"><path d="M295 762l-1 7v-4h-1v4l-1-7h1-1l1 5v-5h1v5l1-5h-1 1zM296 762h3-1v7h1-3 1v-7h-1zM301 766v3h-1v-7h3v3l-1 1h-1zm0-1h1l1-1-1-2h-1v3z"/></g><g fill="#2EA7E0"><path d="M322 762l-1 7-1-4v4h-1v-7h-1 1l1 5v-5h1v5l1-5h-1 1zM323 762h3-1v7h1-3 1v-7h-1zM328 766v3h-1v-7h3v3l-2 1zm0-1h1v-1-2h-1v3z"/></g><path fill="none" stroke="#2EA7E0" stroke-miterlimit="10" d="M311 756v20M267 174h95v609h-95zM423 190h41v35h-41z"/><path fill="none" stroke="#2EA7E0" stroke-miterlimit="10" d="M404 198h20v18h-20z"/><path stroke="#2EA7E0" stroke-miterlimit="10" d="M444 148v-1h2l2 1 1 5-1 4-2 2h-2v-11zm4 5v-5l-2-1h-1v11h1l1-1 1-4z"/><path fill="none" stroke="#2EA7E0" stroke-miterlimit="10" d="M431 268h21v16h-21zM414 240h58v28h-58z"/><g fill="#2EA7E0"><path d="M432 251l-1-1h3l2 1 1 2-1 3-3 1h-2 1v-6zm4 3v-3l-2-1-1 1v6l2-1 1-2zM445 257h-3 1v-1l-2-3-1 1v3h1-3 1v-6l-1-1h3-1v1c0 1 0 0 0 0v3l2-3h1l-1-1h2v1h-1l-2 2 3 3v1h1zM445 250h6v2l-1-1-1-1h-2v3h2l1-1v3-1h-1v-1h-2v4h2l1-1 1-1v2h-6 1v-6-1h-1z"/></g><path fill="none" stroke="#2EA7E0" stroke-miterlimit="10" d="M431 224h21v16h-21zM414 284h58v28h-58zM432 313h21v13h-21zM403 326h82v30h-82zM403 326l20 7M423 341l-20-6M423 348l-20-5M422 356l-19-5"/><g fill="#2EA7E0"><path d="M437 299l-2-1-1-1 1-1 2-1h2v2l-1-1-1-1-2 1v1l2 1 2 1 1 1-1 2h-2-1-1l-1-2 1 1 2 1 1-1 1-1-1-1h-1zM443 299v3h-2 1v-6l-1-1h3l2 1 1 1-1 1-2 1h-1zm1 0l1-1 1-1v-1l-2-1h-1v4h1zM449 295h4-1v7h1-4 2v-6l-1-1h-1z"/></g><path fill="none" stroke="#2EA7E0" stroke-miterlimit="10" d="M431 462h21v16h-21zM417 478h48v27h-48zM431 505h18v15h-18zM432 549h18v15h-18zM418 564h48v89h-48zM432 653h18v15h-18zM417 668h48v21h-48z"/><g fill="#2EA7E0"><path d="M436 682h-2l-1 1v1h1-2 1l1-5h1l2 5h1-2v-2zm-1-2l-1 2h2l-1-2zM443 682v2h-4l-1-2 1-2 2-1 2 1v2zm-4 0l1 1 1 1 1-1 1-1-1-2-1-1-1 1-1 2zM445 679h3-1v5h1-3 1v-5h-1z"/></g><path fill="none" stroke="#2EA7E0" stroke-miterlimit="10" d="M418 701h22v45h-22zM432 689h18v12h-18z"/><g fill="#2EA7E0"><path d="M431 708h1v3h-1v-1h-7v1-3 1h7v-1zM427 716h-3v1-2 1h7v-1h1v2l-1 1-1 1-2-1-1-1v-1zm1 1v1h3v-1-1c0-1 0 0 0 0h-3v1zM424 725l1-1 3-1 3 1 1 1-1 1h-6-1-1 1-1l1-1zm0 0h2l-1-1h-1v1zm2 0h-2l1 1h5l1-1-1-1h-2a20 20 0 0 0-3 0h1v1zM424 733l1-2h5l2 2h-1v1h1-2l1-1-1-1-2-1-3 1-1 1h1l1 1-2-1z"/></g><path fill="none" stroke="#2EA7E0" stroke-miterlimit="10" d="M440 701h22v45h-22z"/><g fill="#2EA7E0"><path d="M445 712l1-2h6l1 2-1 1h-5l-2-1v1h-1v-1h1zm0 0h2v-1h-1l-1 1zm2-1v1h-1l1 1h2l3-1h1l-1-1-3-1a20 20 0 0 0-2 1zM448 731v-1l-2-1-1 1v-1h1l7 1v1l-7 1h-1v-1h3zm4-1h-4v1l4-1z"/></g><path fill="none" stroke="#2EA7E0" stroke-miterlimit="10" d="M423 326v30M465 326v30M465 326l20 8M485 341l-20-6M484 347l-19-4M485 356l-19-5"/><g fill="#2EA7E0"><path d="M435 338h-1c-1 0 0 0 0 0h1l-2 2v2h1-3 1v-1l-2-3h1l2 2 2-2zM440 340h-2l-1-1 1-1h4v1l-1-1h-3v1l2 1h2l1 1-1 1-2 1-1-1h-1v1l-1-2 1 1h3l1-1h-1l-1-1zM449 339l-1-1h-3v1h0-1l1-1h4l1 1h-1l-1 1a46 46 0 0 0-3 2h4v-1h1l-1 1h-5l1-1h2l1-1 1-1zM456 342h1-4 2v-1h-4l4-3h1v3h1-1v1zm-1-4l-3 3h3v-3z"/></g><path fill="none" stroke="#2EA7E0" stroke-miterlimit="10" d="M403 356h82v30h-82zM403 356l20 7M423 371l-20-6M422 378l-19-5M422 386l-19-5M423 356v30M464 356v30M465 356l20 8M485 371l-20-6M484 377l-19-4M485 386l-19-5"/><g fill="#2EA7E0"><path d="M434 368h2-1l-2 2v2h1-3 1v-1l-2-3h-1 3-1l2 2 1-2zM440 370h-3v-1l1-1h4v1l-1-1h-2-1v1l2 1h2v2l-2 1-1-1h-1l-1 1v-2l1 1h3l1-1h-1l-1-1zM448 369v-1h-3v1h-1l1-1h4v1l-1 1a46 46 0 0 0-3 2h4v-1 1h-5l1-1h2l1-1v-1zM455 372h2-4 2v-1h-4l4-3v3h2-2v1zm-1-4l-3 3h4v-3h-1z"/></g><path fill="none" stroke="#2EA7E0" stroke-miterlimit="10" d="M402 386h82v30h-82zM402 386l20 7M422 401l-20-5M422 409l-19-5M421 416l-19-5M422 386v30M464 386v30M464 386l20 8M484 401l-20-6M484 408l-19-5M484 416l-19-5"/><g fill="#2EA7E0"><path d="M434 398h-1 1l-1 3v2h1-3l1-1v-1l-2-3h-1 3-1l1 2 2-2zM439 400h-2v-1-1h4l1 1h-1l-1-1h-2l-1 1h1l2 1 1 1h1l-1 1-2 1h-1-1l-1-2h1l1 1 1 1 2-1v-1l-2-1zM448 399v-1h-2-1v1h-1l1-1h3l1 1v1h-1a46 46 0 0 0-4 2h4l1-1v2h-5v-1h1l1-1 2-1v-1zM455 402l1 1h-3l1-1v-1h-4l4-3h1v3h2-2v1zm-1-3l-3 2h3v-2z"/></g><path fill="none" stroke="#2EA7E0" stroke-miterlimit="10" d="M431 416h21v16h-21zM403 433h82v28h-82zM403 433l20 7M423 447l-20-5M423 454l-20-4M422 461l-19-4M423 433v28M465 433v28M465 434l20 7M485 447l-20-5M484 454l-19-5M485 461l-19-4"/><g fill="#2EA7E0"><path d="M432 445h-1c-1 0 0 0 0 0v-1h2v1h-1l-2 2v2h1-3 1v-2l-2-2v-1h2v1h-1l2 2 2-2zM437 447l-2-1-1-1h1l2-1h2v1h-1l-1-1-2 1v1h2l2 1 1 1-1 1h-2-1-1-1v-1h1a5 5 0 0 0 3 0h1l-1-1h-1zM445 444v5h1-4 1l1-1v-3h-2 2v-1h1zM451 449l-2-1-1-1 1-2 2-1 2 1 1 2-1 1-2 1zm0-4h-1l-1 2 1 1 1 1 1-1 1-1-1-2h-1zM458 449l-2-1-1-1 1-2 2-1 2 1 1 2-1 1-2 1zm0-4h-1l-1 2 1 1 1 1 1-1 1-1v-2h-2z"/></g><g fill="#2EA7E0"><path d="M429 608l1-1v-4l-1-2h3c2 0 2 1 2 2l-1 1 2 2-1 2h-5zm3-4l2-1-2-1h-1v2h1zm-1 1v2l1 1c1 0 2 0 2-2l-2-1h-1zM437 608l2-1v-5h-1l-2 1v-2h6v2l-2-1h-1v5l2 1h-4zM450 605l-1 3h-4l-1-3v-2l-1-2h3l-1 2v2c0 2 1 3 2 3 2 0 3-1 3-3v-1-2l-2-1h3l-1 1v3z"/></g><g fill="#2EA7E0"><path d="M433 497l1-1-1-2h-2l-1 2 1 1h-3l2-2 2-6 1 2 2 5 1 1h-3zm-1-7l-1 4h2l-1-4zM445 493c0 2-2 4-4 4-3 0-4-1-4-4 0-2 1-4 4-4 2 0 4 2 4 4zm-7 0c0 2 1 4 3 4s3-1 3-3c0-3-1-4-3-4s-3 1-3 3zM446 497l1-1v-5l-1-1v-1h3v1l-1 1v5l1 1h-3z"/></g><path fill="none" stroke="#2EA7E0" stroke-miterlimit="10" d="M403 520h82v28h-82zM423 535l-20-5M422 542l-19-5M423 520v29M464 521v28M485 535l-20-6M484 541l-19-5"/><g fill="#2EA7E0"><path d="M431 532h2-1l-2 2v2h1-3 1v-1l-2-3h-1 3-1l2 2 1-2zM437 534h-3v-1l1-1h4v1l-1-1h-2-1v1l2 1h2v2h-4-1v-1l1 1h3l1-1h-1l-1-1zM444 532v4h2-4 1v-3-1h-1 2zM451 536h-2l-1-2 1-2h4l1 2-1 2h-2zm0-4l-1 1-1 1 1 2h2l1-2-1-2h-1zM458 536h-2l-1-2 1-2h4l1 2-1 2h-2zm0-4l-1 1-1 1 1 2h2l1-2-1-2h-1z"/></g><path fill="none" stroke="#2EA7E0" stroke-miterlimit="10" d="M411 755h58v21h-58z"/><g fill="#2EA7E0"><path d="M425 762h-1l-1 7v-5l-1 5-1-7h1v5l1-4v-1h-1 1v5l1-5h1zM425 762h3-1v7h1-3 1v-7h-1zM430 766v3h-1v-7h3v3l-1 1h-1zm1-1h1v-1-2h-2v3h1z"/></g><g fill="#2EA7E0"><path d="M452 762h-1l-1 7v-5l-1 5-1-7h0l1 5 1-4-1-1h1v5l1-5h1zM452 762h3-1v7h1-3 1v-7h-1zM457 766v3h-1v-7h3v3l-1 1h-1zm1-1l1-1-1-2h-1v3h1z"/></g><path fill="none" stroke="#2EA7E0" stroke-miterlimit="10" d="M440 756v20M396 173h95v609h-95zM556 191h41v35h-41zM536 199h20v18h-20z"/><path stroke="#2EA7E0" stroke-miterlimit="10" d="M577 147h4l1 2h-1v-1l-1-1h-2v5h2v-2h1v5h-1v-1-1h-2v6h2l1-1 1-2-1 3h-4v-11-1z"/><path fill="none" stroke="#2EA7E0" stroke-miterlimit="10" d="M563 270h21v16h-21zM547 241h58v28h-58z"/><g fill="#2EA7E0"><path d="M570 258h-2 1v-6l-2 6h-1l-1-5v5h-1v-7h1l2 6 2-6h1v7zM573 255v3h-2 1v-6h-1v-1h3l2 1 1 1-1 2h-3zm1 0l1-1 1-1v-1h-3v3h1zM584 258h1-3 1v-6l-2 6-2-5v5h-1v-7h1l2 6 2-6h2v1h-1v6z"/></g><path fill="none" stroke="#2EA7E0" stroke-miterlimit="10" d="M564 225h21v16h-21zM547 286h58v28h-58zM564 314h21v13h-21z"/><g fill="#2EA7E0"><path d="M570 300l-3-1v-1l1-1 2-1h1v1l1-1v2l-1-1h-2-1v2h2l2 1v3h-4-1v-2l1 2h3l1-2h-1l-1-1zM575 300v3h1-2v-7h3l2 1 1 1-1 1-2 1h-2zm2 0l1-1 1-1-1-1h-3v3h2zM582 297v-1h4v1h-1-1v6h2-4 1v-6h-1z"/></g><path fill="none" stroke="#2EA7E0" stroke-miterlimit="10" d="M564 433h18v15h-18zM550 448h48v114h-48z"/><g fill="#2EA7E0"><path d="M562 504l1-1v-4l-1-1h3l2 1-2 2c1 0 3 0 3 2l-2 1-2 1h-2v-1zm2-3c2 0 2-1 2-2l-2-1h-1v3h1zm-1 0v2l2 1 2-1c0-2-1-2-3-2h-1zM570 504l1-1v-5l-3 1v-2h1v1h5l1-1v2l-2-1h-1v5l1 1v1h-3v-1zM583 501l-1 3-2 1-2-1-1-2v-3l-1-1h2l-1 1v2c0 2 1 3 3 3s2-1 2-3v-1-2h-1 3-1v3z"/></g><path fill="none" stroke="#2EA7E0" stroke-miterlimit="10" d="M534 327h82v53h-82z"/><path fill="none" stroke="#2EA7E0" stroke-miterlimit="10" d="M554 327h19v7h-19z"/><path fill="none" stroke="#2EA7E0" stroke-miterlimit="10" d="M553 333h19v7h-19zM553 340h19v7h-19zM553 347h19v7h-19z"/><path fill="none" stroke="#2EA7E0" stroke-miterlimit="10" d="M553 353h19v7h-19zM553 360h19v7h-19z"/><path fill="none" stroke="#2EA7E0" stroke-miterlimit="10" d="M553 366h19v7h-19zM553 373h19v7h-19zM534 327l20 6M554 340l-20-5M553 347l-19-5M553 353l-19-4M553 360l-20-5M553 366l-19-4M552 373l-19-4"/><g fill="#2EA7E0"><path d="M588 357v-5h-1 3-1v7h-1l-4-6v5h1v1h-2v-1h1v-6h-1 1l4 5zM594 355l1 3h1v1h-2v-1h0l-1-2-1 2a24 24 0 0 1-1 0h1v1h-2v-1a1 1 0 0 0 1 0l2-3-2-3h-1 3-1v1l1 2 2-2v-1h-1 2-1l-1 3zM602 359h-3v-1h1v-6h-1-1l-1 1 1-1h5v1l-1-1h-1v6h1v1z"/></g><path fill="none" stroke="#2EA7E0" stroke-miterlimit="10" d="M565 380h21v13h-21zM534 393h82v41h-82z"/><path fill="none" stroke="#2EA7E0" stroke-miterlimit="10" d="M554 393h19v7h-19z"/><path fill="none" stroke="#2EA7E0" stroke-miterlimit="10" d="M554 399h19v7h-19zM554 406h19v7h-19z"/><path fill="none" stroke="#2EA7E0" stroke-miterlimit="10" d="M554 412h19v7h-19zM554 419h19v7h-19zM554 426h19v7h-19zM534 393l20 6M555 406l-20-5M554 412l-19-4M554 419l-20-4M554 425l-20-4M554 432l-19-4"/><g fill="#2EA7E0"><path d="M587 413l2 3h1-2l-1-3-2 2a24 24 0 0 1 0 1h1-2a1 1 0 0 0 1 0l2-3-2-3h-1 2l1 2 1-2h2-1l-2 3zM592 413v3h1-2 1v-6h-1 5l1 1-1 2h-4zm2 0h1l1-2-1-1h-2-1v3h2zM600 416h-2 1v-6h-1 6v1l-1-1h-3v3h1l1-1h1v2h-1v-1h-2v3z"/></g><path fill="none" stroke="#2EA7E0" stroke-miterlimit="10" d="M565 562h18v15h-18zM550 577h48v21h-48z"/><g fill="#2EA7E0"><path d="M569 589h-2l-1 1v1h1-2 1l2-5 2 5h1-2v-2zm-1-2l-1 2h2l-1-2zM576 589v1l-2 1-2-1-1-1 1-2 2-1 2 1v2zm-4 0l1 1 1 1 1-1 1-1-1-2-1-1-1 1-1 2zM578 586h4-2v5h2-4 1v-5h-1z"/></g><path fill="none" stroke="#2EA7E0" stroke-miterlimit="10" d="M551 610h22v45h-22zM565 598h18v12h-18z"/><g fill="#2EA7E0"><path d="M564 617h1v3h-1v-1h-7v1-3 1h7v-1zM560 625h-3v1-2 1h7v-1h1v2l-1 1-1 1-2-1-1-1v-1zm1 1v1h3v-1-1c0-1 0 0 0 0h-3v1zM557 634l1-1 3-1 3 1 1 1-1 1h-6-2 1c1 0 0 0 0 0h-1v-1h1zm0 0h2l-1-1h-1v1zm2 0h-1l1 1h5v-1-1h-3a20 20 0 0 0-3 0h1v1zM557 642l1-2h6l1 2v1h-2l1-1-1-1-2-1-3 1-1 1h1l1 1-2-1z"/></g><path fill="none" stroke="#2EA7E0" stroke-miterlimit="10" d="M565 657h18v27h-18z"/><g fill="#2EA7E0"><path d="M571 665h-4 5v-1h1l-1 1h2v-2c-3 1-6 0-7-1l3 1h7v2l1 1h-1v-1l-1-2h-2v3h1l-1 1v-2h-2l-1 2h-1v-1l1-1zm2-3l1 1h-1l-1-1h-3l-2-1 1-1h1l-1 1h4l-1-1h1l1 1h2v-1 1h3l-1 1h-2 1l-1 1v-1h-2zM573 669h-6a414 414 0 0 0 3-1l5 1v-1 1h3l-1 1v-1h-2v1h1-1v-1h-1l-1 1h-1c-1 0-1 0 0 0l1-1zm1 5l-4-1-2 2-1-1 3-2-3-2h1l2 2 4-1a35 35 0 0 1-5 0l-2-1v-1l3 1 3 1h4-1l1 2 1 1h-1v-1l-1-2h-2v2l1 1h-1zm0-2h-3l3 1v-1zM573 677h-6a390 390 0 0 0 2-2l6 2v-2 2h3-3l1 1h-1v-1h-1l-1 1h-1l1-1zm4 2h-4l-6-2 6 2h4v2h-8-1l1 1h0-1v-1l1-1h8v-1z"/></g><path fill="none" stroke="#2EA7E0" stroke-miterlimit="10" d="M549 683h54v21h-54zM574 683v21"/><g fill="#2EA7E0"><path d="M557 695v2h-1v-2l-5 2 4-2h-3l-1-1h5v-1l1 1h4l1 1h-5l4 1v1l-4-2zm-6-4h2v-1h1v1h2v2l-1 1-1-1h1v-2h-1c0 2-1 3-3 3 2-1 2-1 2-3h-2zm6 3v-2-1h4-1l1 2h-3l-1 1zm1-3v2h2v-2h-2zM564 691h7l1-1v1h-1l-2 1-1 1h5-5v3l-1 1-1-1h2v-3h-4-1 5v-1l3-1h-7z"/></g><g fill="#2EA7E0"><path d="M583 695v2h-1v-2l-5 2 4-2h-3l-1-1h5v-1l1 1h4l1 1h-5l4 1v1l-4-2zm-6-4h2v-1h1v1h2v2l-1 1-1-1h1v-2h-1c0 2-1 3-3 3 2-1 2-1 2-3h-2zm6 3v-2-1h4v2h-3l-1 1zm1-3v2h2v-2h-2zM590 691h7l1-1v1h-1l-2 1v1h4-4v3l-2 1-1-1h2v-3h-4-1 5v-1l3-1h-7z"/></g><path fill="none" stroke="#2EA7E0" stroke-miterlimit="10" d="M573 610h22v45h-22z"/><g fill="#2EA7E0"><path d="M578 621l1-2h6l1 2-1 1h-5l-2-1v1h-1c-1 0 0 0 0 0v-1h1zm0 0h2v-1h-1l-1 1zm3-1l-1 1h-1l1 1h2l3-1h1l-1-1-3-1a20 20 0 0 0-2 1h1zM581 640v-1l-2-1v1h-1v-1h1l7 1v1l-7 1h-1v-1h3zm4-1h-4v1l4-1z"/></g><path fill="none" stroke="#2EA7E0" stroke-miterlimit="10" d="M526 173h95v609h-95zM685 186h41v35h-41zM665 194h20v18h-20z"/><path stroke="#2EA7E0" stroke-miterlimit="10" d="M708 157h-2v-12h4l1 3-1-2h-3v5h2v-2h1v4h-1v-1-1h-2v6h1z"/><path fill="none" stroke="#2EA7E0" stroke-miterlimit="10" d="M692 265h21v16h-21zM676 237h58v28h-58z"/><g fill="#2EA7E0"><path d="M699 253v1h-2v-1h1v-5l-2 6h-1l-1-6v6h-1v-7h1l2 5 1-5h2v6zM702 250v4h-2v-1h1v-6h-1 5l1 1-1 2h-3zm1 0h1l1-1-1-2h-2v3h1zM713 253h1v1h-3v-1h1v-5l-2 6-2-6v6h-1v-7h1l2 5 2-5h2-1v6z"/></g><path fill="none" stroke="#2EA7E0" stroke-miterlimit="10" d="M693 221h21v16h-21zM676 281h58v28h-58zM693 310h21v13h-21z"/><g fill="#2EA7E0"><path d="M699 295l-3-1v-1l1-1h4v1l-1-1h-2-1v2l2 1 2 1v2l-2 1-1-1h-1l-1 1v-2l1 1h3l1-1-1-1-1-1zM704 295v3h1v1h-2v-7h5l1 1-1 2h-4zm2 0h1l1-1-1-2h-2-1v3h2zM711 292h4-1-1v6h2v1h-4v-1h1v-6h-1z"/></g><path fill="none" stroke="#2EA7E0" stroke-miterlimit="10" d="M679 513h48v112h-48z"/><g fill="#2EA7E0"><path d="M691 569l1-1v-4l-1-1v-1h3l2 2-2 1v1l2 1-1 2h-4zm2-4l2-1-2-1h-1v2h1zm-1 1v2l2 1c1 0 2 0 2-2l-3-1h-1zM699 569l1-1v-5l-3 1v-2h7v2l-2-1h-1v5l1 1h-3zM712 566l-1 3-2 1-2-1-1-2v-3l-1-1v-1h2v1l-1 1v2c0 2 1 3 3 3s2-1 2-3v-1-2h-1v-1h3v1h-1v3z"/></g><path fill="none" stroke="#2EA7E0" stroke-miterlimit="10" d="M663 322h82v53h-82z"/><path fill="none" stroke="#2EA7E0" stroke-miterlimit="10" d="M683 322h19v7h-19zM682 329h19v7h-19z"/><path fill="none" stroke="#2EA7E0" stroke-miterlimit="10" d="M682 335h19v7h-19zM682 342h19v7h-19zM682 349h19v7h-19z"/><path fill="none" stroke="#2EA7E0" stroke-miterlimit="10" d="M682 355h19v7h-19zM682 362h19v7h-19z"/><path fill="none" stroke="#2EA7E0" stroke-miterlimit="10" d="M682 368h19v7h-19zM663 322l20 7M683 335l-20-4M682 342l-19-4M682 348l-19-4M682 355l-20-5M682 362l-19-5M681 368l-19-4"/><g fill="#2EA7E0"><path d="M717 352v-4-1h-1 2v7h-1l-4-6v6h1-2l1-1v-5h-1v-1h1l4 5zM723 350l1 3 1 1h-2 1l-1-1-1-2-1 2a24 24 0 0 1-1 0l1 1h-2a1 1 0 0 0 1-1l2-2-2-3-1-1h3-1v1l1 2 2-2-1-1h2v1h-1l-1 2zM731 354h-3 1v-6-1h-1l-1 1-1 1 1-2h5v2l-1-1-1-1v7h1z"/></g><path fill="none" stroke="#2EA7E0" stroke-miterlimit="10" d="M694 375h21v13h-21zM663 388h82v41h-82z"/><path fill="none" stroke="#2EA7E0" stroke-miterlimit="10" d="M683 388h19v7h-19zM683 395h19v7h-19z"/><path fill="none" stroke="#2EA7E0" stroke-miterlimit="10" d="M683 401h19v7h-19zM683 408h19v7h-19z"/><path fill="none" stroke="#2EA7E0" stroke-miterlimit="10" d="M683 414h19v7h-19zM683 421h19v7h-19zM663 388l20 7M684 401l-20-5M683 408l-19-5M683 414l-20-4M683 421l-20-5M683 427l-20-4"/><g fill="#2EA7E0"><path d="M716 408l2 3h1v1h-2v-1l-1-2-2 2h1v1h-2v-1a1 1 0 0 0 1 0l2-3-2-3h-1 2v1l1 2 1-2v-1h2-1l-2 3zM721 409v2h1v1h-2v-1h1v-6h-1 5l1 2-1 1-2 1h-2zm2-1h1l1-1-1-1-1-1h-1-1v3h2zM729 411v1h-2v-1h1v-6h-1 6v1l-1-1h-3v3h2v-1h1v2h-1v-1h-2v3z"/></g><path fill="none" stroke="#2EA7E0" stroke-miterlimit="10" d="M693 497h18v15h-18zM680 640h48v21h-48z"/><g fill="#2EA7E0"><path d="M698 655h-2l-1 1h1-2 1l2-5 2 5h1v1h-2v-2zm-1-3l-1 2h2l-1-2zM705 654v2l-2 1-2-1-1-2 1-2 2-1 2 1v2zm-4 0l1 2h2l1-2-1-2h-2l-1 2zM707 652v-1h4v1h-2v4h2v1h-4v-1h1v-4h-1z"/></g><path fill="none" stroke="#2EA7E0" stroke-miterlimit="10" d="M680 674h22v45h-22zM694 662h18v12h-18z"/><g fill="#2EA7E0"><path d="M693 681h1v2h-1v-1h-7v1-2 1h7v-1zM689 689h-3v-1h8v2l-1 1h-3l-1-1v-1zm1 0v1l2 1 1-1v-1h-3zM686 697l1-1 3-1 3 1 1 1-1 1-3 1h-3l-1-1h-1l1 1-1-1h1v-1zm0 0h1v-1l-1 1zm2 0l-1 1h1a17 17 0 0 0 4 0l1-1v-1h-3a20 20 0 0 0-3 0h1v1zM686 705l1-1 3-1 3 1 1 1v1h-2 1v-1l-1-1h-5l-1 1 1 1h1-2v-1z"/></g><path fill="none" stroke="#2EA7E0" stroke-miterlimit="10" d="M702 674h22v45h-22z"/><g fill="#2EA7E0"><path d="M707 684l1-1 3-1 3 1 1 1-1 1-3 1-2-1h-2v1l-1-1 1-1zm0 0h2v-1h-1l-1 1zm3 0h-1l-1 1h1a17 17 0 0 0 5 0l1-1-1-1h-3a20 20 0 0 0-2 0l1 1zM710 703v-1h-2-1v-1h1v1l7 1-7 1-1 1v-2 1h1l2-1zm4 0l-4-1v1h4z"/></g><path fill="none" stroke="#2EA7E0" stroke-miterlimit="10" d="M679 429h48v21h-48z"/><g fill="#2EA7E0"><path d="M697 441h-2l-1 1v1h1-2 1v-1l2-4 2 4v1h1-2v-2zm-1-3l-1 3h2l-1-3zM705 440l-1 2-2 1-2-1-1-2 1-2h4l1 2zm-5 0l1 2 1 1 1-1 1-2-1-1-1-1h-1l-1 2zM706 438h4-1-1v5h2-4 1l1-1v-4h-2z"/></g><path fill="none" stroke="#2EA7E0" stroke-miterlimit="10" d="M694 450h21v13h-21zM664 463h82v34h-82z"/><path fill="none" stroke="#2EA7E0" stroke-miterlimit="10" d="M684 463h19v7h-19z"/><path fill="none" stroke="#2EA7E0" stroke-miterlimit="10" d="M684 469h19v7h-19zM683 476h19v7h-19z"/><path fill="none" stroke="#2EA7E0" stroke-miterlimit="10" d="M683 482h19v7h-19zM683 489h19v7h-19zM664 463l20 6M684 476l-20-5M683 482l-19-4M683 489l-19-4M683 496l-20-5"/><g fill="#2EA7E0"><path d="M716 483l2 3h1-2c1 0 1 0 0 0l-1-3-1 2v1h-1 1-2a1 1 0 0 0 1 0l2-3-2-3h-1 2l1 2 2-2h-1 1l-2 3zM722 483v3h1-3 1v-6h-1 5l1 1-1 2h-3zm1 0h2v-2-1h-3v3h1zM730 486h-3 1v-6h-1 6l1 1h-1l-1-1h-3v3h2v-1h1v2l-1-1h-2v3h1z"/></g><path fill="none" stroke="#2EA7E0" stroke-miterlimit="10" d="M693 625h18v15h-18z"/><path fill="none" stroke="#2EA7E0" stroke-miterlimit="10" d="M656 173h95v609h-95zM813 187h41v35h-41zM793 195h20v18h-20z"/><path stroke="#2EA7E0" stroke-miterlimit="10" d="M836 145l-1 2-1 4 1 4 1 2 1-1v-3-1h1v4l-1 1h-1l-2-2v-4-4l2-2h2v3l-1-2-1-1z"/><path fill="none" stroke="#2EA7E0" stroke-miterlimit="10" d="M820 266h21v16h-21zM804 238h58v28h-58z"/><g fill="#2EA7E0"><path d="M827 254h-2 1v-6l-2 6h-1l-1-5v5h-1v-7h1l2 6 1-6h2v7zM830 251v3h-2 1v-6h-1v-1h3l2 1 1 1-1 2h-3zm1 0l1-1 1-1-1-1h-2v3h1zM841 254h1-3 1v-6l-2 6-2-5v5h-1v-7h1l2 6 2-6h2v1h-1v6z"/></g><path fill="none" stroke="#2EA7E0" stroke-miterlimit="10" d="M821 221h21v16h-21zM804 282h58v28h-58zM821 310h21v13h-21z"/><g fill="#2EA7E0"><path d="M827 296l-3-1v-1l1-1 2-1h1v1h1v-1 2l-1-1h-2-1v2h2l2 1v3h-4-1v-2l1 2h3l1-2h-1l-1-1zM832 296v3h1-2v-7h3l2 1 1 1-1 2h-4zm2 0l1-1 1-1-1-1h-2-1v3h2zM839 293v-1h4v1h-1-1v6h2-4 1v-6h-1z"/></g><path fill="none" stroke="#2EA7E0" stroke-miterlimit="10" d="M807 445h48v112h-48z"/><g fill="#2EA7E0"><path d="M819 514l1-1v-5l-1-1h3l2 2-2 1 2 2-1 2h-4zm2-4l2-1c0-1 0-2-2-2s-1 0-1 1v2h1zm-1 0v3l2 1 2-2c0-1-1-2-3-2h-1zM827 514l1-1v-6c-2 0-2 1-3 2v-2h7v2l-2-2h-1v6l1 1h-3zM840 510l-1 3-2 1h-2l-1-3v-3l-1-1h2l-1 1v3c0 2 1 3 3 3s2-2 2-4v-2l-1-1h3l-1 1v2z"/></g><path fill="none" stroke="#2EA7E0" stroke-miterlimit="10" d="M791 323h82v53h-82z"/><path fill="none" stroke="#2EA7E0" stroke-miterlimit="10" d="M811 323h19v7h-19z"/><path fill="none" stroke="#2EA7E0" stroke-miterlimit="10" d="M810 329h19v7h-19zM810 336h19v7h-19zM810 343h19v7h-19z"/><path fill="none" stroke="#2EA7E0" stroke-miterlimit="10" d="M810 349h19v7h-19zM810 356h19v7h-19z"/><path fill="none" stroke="#2EA7E0" stroke-miterlimit="10" d="M810 362h19v7h-19zM810 369h19v7h-19zM791 323l20 6M811 336l-20-5M810 343l-19-5M810 349l-19-4M810 356l-20-5M810 362l-19-4M809 369l-19-4"/><g fill="#2EA7E0"><path d="M845 353v-5h-1 2v7h-1l-4-6v5h1v1h-2v-1h1v-6h-1 1l4 5zM851 351l1 3h1v1h-2v-1h0l-1-2-1 2a24 24 0 0 1-1 0h1v1h-2v-1a1 1 0 0 0 1 0l2-3-2-3h-1 3-1v1l1 2 2-2v-1h-1 2-1l-1 3zM859 355h-3v-1h1v-5-1h-1-1l-1 1 1-1h5v1l-1-1h-1v6h1v1z"/></g><path fill="none" stroke="#2EA7E0" stroke-miterlimit="10" d="M822 376h21v13h-21zM791 389h82v41h-82z"/><path fill="none" stroke="#2EA7E0" stroke-miterlimit="10" d="M811 389h19v7h-19z"/><path fill="none" stroke="#2EA7E0" stroke-miterlimit="10" d="M811 395h19v7h-19zM811 402h19v7h-19z"/><path fill="none" stroke="#2EA7E0" stroke-miterlimit="10" d="M811 408h19v7h-19zM811 415h19v7h-19zM811 422h19v7h-19zM791 389l20 6M812 402l-20-5M811 408l-19-4M811 415l-20-4M811 422l-20-5M811 428l-20-4"/><g fill="#2EA7E0"><path d="M844 409l2 3h1-2l-1-3-2 2v1h1-2a1 1 0 0 0 1 0l2-3-2-3h-1 2l1 2 1-2h2-1l-2 3zM849 409v3h1-2 1v-6h-1 5l1 1-1 2h-4zm2 0h1l1-2-1-1h-2-1v3h2zM857 412h-2 1v-6h-1 6v1l-1-1h-3v3h2v-1h1v2h-1v-1h-2v3z"/></g><path fill="none" stroke="#2EA7E0" stroke-miterlimit="10" d="M821 429h18v15h-18zM808 573h48v21h-48z"/><g fill="#2EA7E0"><path d="M826 583h-2l-1 1 1 1h-2 1v-1l2-4 2 4v1h1-2v-2zm-1-3l-1 3h2l-1-3zM834 582l-1 2-2 1-2-1v-2-2h4l1 2zm-5 0l1 2 1 1 1-1 1-2-1-2h-1-1l-1 2zM835 580h4-1-1v5h2-4 2v-5h-2z"/></g><path fill="none" stroke="#2EA7E0" stroke-miterlimit="10" d="M808 606h22v45h-22zM822 594h18v12h-18z"/><g fill="#2EA7E0"><path d="M822 613v2l-1-1h-6l-1 1v-2 1h8v-1zM818 621h-3-1v1-2l1 1h6l1-1c1-1 0 0 0 0v2l-1 1h-3v-2zm0 1v1h3l1-1v-1h-4v1zM814 629l1-1h6l1 1-1 2h-6l-1-1v1h-1v-1h1v-1zm0 1l1-1h-1v1zm2-1v1h-1 1a17 17 0 0 0 5 0l1-1h-1l-3-1a20 20 0 0 0-3 0l1 1zM814 637l1-1 3-1 3 1 1 1v1l-2 1v-1h1l1-1-1-1h-6l-1 1 1 1h1v1l-1-1-1-1z"/></g><path fill="none" stroke="#2EA7E0" stroke-miterlimit="10" d="M830 606h22v45h-22z"/><g fill="#2EA7E0"><path d="M835 616l1-1h6l1 1-1 1-3 1h-2l-1-1h-1v1h1-1l-1-1h1v-1zm1 0h1l-1-1v1zm2 0l-1 1h-1 1a17 17 0 0 0 5 0l1-1-1-1h-3a20 20 0 0 0-2 0l1 1zM838 636v-2h-3v-1h1v1l7 1h1l-8 2h-1v-1h3zm5-1l-4-1v2l4-1z"/></g><path fill="none" stroke="#2EA7E0" stroke-miterlimit="10" d="M821 557h18v15h-18zM822 652h18v27h-18z"/><g fill="#2EA7E0"><path d="M828 661h-3-1v-1h7v-1c-4 0-6-1-7-2l3 1 3 1h4-1l1 1v2l-1-1v-2h-2v4-2h-3l-1 1h-1l2-1zm1-4l1 1-1-1h-4-1l1-1v1h4l-1-1 1 1h3v-1 1h3l-1 1v-1h-2v1-1h-3zM830 665h-6v-1a414 414 0 0 0 2-1l5 1v-1h1v1h3l-1 1h-2v1h-1v-1h-1l-1 1h-1l1-1h1zm0 4l-3-1-2 2h-1l2-2-2-2v-1l3 3 4-1a35 35 0 0 1-5-1l-2-1 3 1h6v1l1 1v1l-1 1v-1-2h-2v3l-1-1zm1-2l-4 1 4 1v-2zM830 673h-6v-1a390 390 0 0 0 2-1l5 1v-1h1v1h3l-1 1h-2l-1 1v-1h-1l-1 1v-1h1zm3 2h-4l-5-2 5 1h5l-1 1v1h1l-1 1v-1h-8v1h2l-1 1h-1l-1-1c-1-1 0 0 0 0v-1h9v-1z"/></g><path fill="none" stroke="#2EA7E0" stroke-miterlimit="10" d="M806 679h54v21h-54zM831 679v21"/><g fill="#2EA7E0"><path d="M813 690v2l-1 1v-3l-4 2h-1c3 0 4-1 5-2h-3-1 4v-1h2l-1 1h5-4l4 2h-1l-4-2zm-5-3h2v-1h1-1v1h2v-1l1 1h-1v2h-1-1 1l1-1v-1h-2c0 1 0 2-2 3l2-3h-2zm6 2v-1-2l1 1h1l1-1v3h-1v-1h-1v1h-1zm1-2v1h1v-1h-1zM821 686h8l-1 1-3 1h1-1v1h3l1-1 1 1h-5v3l-1 1-2-1h2v-3h-5 5v-2l1 1 2-2h-5-1z"/></g><g fill="#2EA7E0"><path d="M839 690v0l-5 2 4-2h-3-1 5v-1h1l-1 1h5-4l4 2h-1l-4-2zm-5-3h2v-1h1v1h1v-1l1 1-1 2h-1-1 1l1-1v-1h-1l-3 3 2-3h-2zm6 2v-1-2l1 1h1l1-1v3-1h-2v1h-1zm1-2v1h2v-1h-2zM847 686h8l-1 1-3 1h1-1v1h3l1-1 1 1h-5v3l-1 1-2-1h2v-3h-5 5v-2l1 1 3-2h-6-1z"/></g><path fill="none" stroke="#2EA7E0" stroke-miterlimit="10" d="M806 700h54v21h-54zM806 721h54v21h-54zM806 743h54v21h-54z"/><g fill="#2EA7E0"><path d="M827 708l-1 5h-1v-3h-1v3h-1l-1-5h1v4h1v-4h1l1 3v-3c1 0 0 0 0 0h1zM829 708h3-1v5h1-3 1v-5h-1zM835 711v2h1-2v-5h4l1 1-1 1-1 1h-2zm1 0l1-1 1-1v-1h-3v3h1z"/></g><g fill="#2EA7E0"><path d="M828 730v1h-1l-1 4-1-3-1 3-1-4h-1v-1h2v1h-1l1 3 1-3h-1v-1h2v4l1-3v-1h1zM829 731v-1h4v1h-2v4h2-4 2v-4h-2zM836 733v2h1-3 1v-4h-1v-1h3l2 1v2h-3zm1 0h1l1-1-1-1h-2v2h1z"/></g><g fill="#2EA7E0"><path d="M818 752v-3l1 1v2l1-1v1h-1v2h2l-4 1h-1l2-1v-2h-1-1 2zm8 0l-1 1-2 2h3l1 1h-6-1v-1h3l1-1v-2h2zm-6-1h6-6zm1 1l2 2-1 1v-1l-1-2zm1-3l2 1-1 1-1-2zM830 754h2l-4 1 2-1v-2h-2v-1h2l-1-2 2 1h-1v1h1l1 1h-2v2zm7-4h-1l-1 2h3-1l-1 3h1l1 1-3-1-4 1 4-1-2-3-1 3-2 1h-1l3-1v-2l1-3h-2 6zm-4 0v2l2 2 1-2h-2l1-1 1-1h-3zM842 755v1h-1v-3l-1 2 1-4h-1 1v-2l1 1v1h2-2v1h1v1l-1-1v3zm5-1v2h-1v-2h-1v2h-1v-4-1h3l-2-1h1l1 1 1-1h-3-1 4l1-1v1h-1l-1 1h2l1 1v3l-1 1h-2 2v-2h-2zm-2-2v1h1v-1h-1zm0 1v1h1v-1h-1zm2-1v1h2v-1h-2zm0 1v1h2v-1h-2z"/></g><path fill="none" stroke="#2EA7E0" stroke-miterlimit="10" d="M785 173h95v609h-95zM943 188h41v35h-41zM923 196h20v18h-20z"/><path stroke="#2EA7E0" stroke-miterlimit="10" d="M972 157v1h-2 1v-6h-3v6h1-2l1-1v-10h-1v-1h2v1h-1v5h3v-5h-1v-1h2v11z"/><path fill="none" stroke="#2EA7E0" stroke-miterlimit="10" d="M950 267h21v16h-21zM933 239h58v28h-58z"/><g fill="#2EA7E0"><path d="M956 255h1v1h-3v-1h1v-5l-2 6-2-6v5h1v1h-2v-1h1v-6h-1 2l1 5 2-5h2-1v6zM959 252v3h1v1h-3v-1h1v-6h-1 6l1 1-1 2h-4zm1 0h2l1-1-1-2h-3v3h1zM970 255h1v1h-2v-6l-2 6-2-6v5h1v1h-2v-1h1v-6h-1 2l1 5 2-5h1v6z"/></g><path fill="none" stroke="#2EA7E0" stroke-miterlimit="10" d="M950 223h21v16h-21zM933 283h58v28h-58zM951 312h21v13h-21z"/><g fill="#2EA7E0"><path d="M956 297l-2-1-1-1 1-1h4l1 1h-1l-1-1h-2l-1 1 1 1 1 1 2 1 1 1-1 1-2 1-1-1h-1v1l-1-2h1l1 1h3v-1-1l-2-1zM962 297v3h1v1h-3v-1h1v-6h-1 6v1l-1 2h-3zm1 0h2v-1-2h-3v3h1zM968 294h5-2v6h2v1h-5v-1h2v-6h-2z"/></g><path fill="none" stroke="#2EA7E0" stroke-miterlimit="10" d="M941 446h48v112h-48z"/><g fill="#2EA7E0"><path d="M952 515l1-1v-4l-1-1v-1h3c2 0 2 1 2 2l-1 1v1l2 1-1 2h-5zm3-4l2-1-2-1h-1v2h1zm-1 1v2l1 1c1 0 2 0 2-2l-2-1h-1zM961 515l1-1v-5h-1l-2 1v-2h6v2l-2-1h-1v5l2 1h-3zM973 512l-1 3-2 1-2-1-1-2v-3l-1-1v-1h3v1l-1 1v2c0 2 1 3 2 3 2 0 3-1 3-3v-1-2h-1v-1h3v1h-2v3z"/></g><path fill="none" stroke="#2EA7E0" stroke-miterlimit="10" d="M920 324h82v53h-82z"/><path fill="none" stroke="#2EA7E0" stroke-miterlimit="10" d="M940 324h19v7h-19zM940 331h19v7h-19z"/><path fill="none" stroke="#2EA7E0" stroke-miterlimit="10" d="M940 337h19v7h-19zM940 344h19v7h-19zM940 351h19v7h-19z"/><path fill="none" stroke="#2EA7E0" stroke-miterlimit="10" d="M940 357h19v7h-19zM940 364h19v7h-19z"/><path fill="none" stroke="#2EA7E0" stroke-miterlimit="10" d="M944 370h19v7h-19zM920 324l20 7M940 337l-20-4M940 344l-19-4M939 350l-19-4M940 357l-20-5M939 364l-19-5M939 370l-19-4"/><g fill="#2EA7E0"><path d="M975 354v-4l-1-1h2l-1 1v6l-4-6h-1v5l1 1h-2 1v-6-1h-1 2l4 5zM980 352l2 3v1h1-3 1v-1l-1-2-2 2v1h1-3 1a1 1 0 0 0 1-1l1-2-2-3v-1h2l-1 1h1l1 2 1-2v-1h-1 3-1v1l-2 2zM988 356h-3 1v-6-1c0-1 0 0 0 0l-1 1-1 1v-2h5l1 2h-1v-1l-1-1h-1v7h1z"/></g><path fill="none" stroke="#2EA7E0" stroke-miterlimit="10" d="M956 377h21v13h-21zM925 390h82v41h-82z"/><path fill="none" stroke="#2EA7E0" stroke-miterlimit="10" d="M945 390h19v7h-19zM945 397h19v7h-19z"/><path fill="none" stroke="#2EA7E0" stroke-miterlimit="10" d="M945 403h19v7h-19zM944 410h19v7h-19z"/><path fill="none" stroke="#2EA7E0" stroke-miterlimit="10" d="M945 416h19v7h-19zM945 423h19v7h-19zM925 390l20 7M945 403l-20-5M945 410l-19-5M944 416l-19-4M945 423l-20-5M944 429l-19-4"/><g fill="#2EA7E0"><path d="M978 410l2 3h1v1h-3v-1h1l-2-2-1 2v1h-2v-1a1 1 0 0 0 1 0l2-3-2-3h-1 3-1v1l2 2 1-2v-1h-1 1l-1 3zM983 411v2h1v1h-3v-1h1v-6h-1 6v3l-2 1h-2zm1-1h2v-1-1l-2-1h-1v3h1zM991 413v1h-3v-1h1v-6h-1 6l1 1h-1l-1-1h-3v3h3v-1 2l-1-1h-2v3h1z"/></g><path fill="none" stroke="#2EA7E0" stroke-miterlimit="10" d="M955 430h18v15h-18zM941 574h48v21h-48z"/><g fill="#2EA7E0"><path d="M959 584h-2v2h1-2l2-5h1l2 5h-2 1l-1-2zm-1-2l-1 2h2l-1-2zM967 584l-1 1-1 1-2-1-1-1 1-2 2-1 2 1v2zm-4 0v1l2 1 1-1v-1-2l-1-1-2 1v2zM969 581h3-1v5h1-3 1v-5h-1z"/></g><path fill="none" stroke="#2EA7E0" stroke-miterlimit="10" d="M954 607h22v45h-22zM956 595h18v12h-18z"/><g fill="#2EA7E0"><path d="M967 614v3-1h-7v1-3 1h7v-1zM963 622h-3v1-2 1h7v-1 3l-2 1-1-1-1-1v-1zm0 1l1 1h3v-1-1h-4v1zM959 631l1-1 3-1 3 1 1 1-1 1h-6-1 1-2l1-1zm1 0h1v-1h-1v1zm2 0h-1-1l1 1a17 17 0 0 0 5 0l1-1-1-1h-3a20 20 0 0 0-2 0h1v1zM959 639l1-2h6l1 2v1h-2l2-1-1-1-3-1-2 1-1 1 2 1-2-1h-1z"/></g><path fill="none" stroke="#2EA7E0" stroke-miterlimit="10" d="M955 558h18v15h-18zM956 653h18v27h-18z"/><g fill="#2EA7E0"><path d="M962 662h-2-2 5l1-1-1 1h2v-2l-7-1 3 1h7v2l1 1h-1v-1l-1-2h-2v3h1l-1 1v-2h-2l-1 1-1 1v-1l1-1zm2-3l1 1-1-1h-4l-2-1 1-1h1v1h3l-1-1h1l1 1h2v-1 1h3v1h-3 1l-1 1v-1h-2zM965 666h-7a430 430 0 0 0 3-1l5 1v-1 1h3-3v1h1-1v-1h-1l-1 1h-1l2-1zm0 5l-4-1-2 1h-1l3-2-3-2h1l2 2 4-1a34 34 0 0 1-5 0l-2-2 3 1 4 1h3v2h1l-1 1v-1l-1-2h-2v2h1l-1 1zm0-3l-3 1 3 1v-2zM964 674h-5l-1-1a406 406 0 0 0 2-1h1l5 1v-1 1h3v1h-3l1 1h-1v-1h-1l-1 1h-1l1-1zm4 2h-4l-6-2h1l5 1h4v3h-8-1l1 1h0-1v-1l1-1h8v-1z"/></g><path fill="none" stroke="#2EA7E0" stroke-miterlimit="10" d="M939 680h54v21h-54zM964 680v21"/><g fill="#2EA7E0"><path d="M947 691v3h-1v-2l-5 2 4-3h-2l-1 1-1-1h5v-1l1 1h5-5l5 2-1 1-4-3zm-6-3h2v-1h1v1h2v2h-1v1l-1-1h1v-2h-1l-3 3c2-1 2-2 2-3h-2zm6 2a23 23 0 0 0 0-2h4v2h-4zm1-2v2h2v-2h-2zM954 687h8v1h-1l-2 1v1h4-4v3l-2 1-1-1h2v-3h-4-1 5v-1l3-1h-6l-1-1z"/></g><g fill="#2EA7E0"><path d="M973 691v3h-1v-2l-5 2 4-3h-2l-1 1-1-1h5v-1l1 1h5-5l5 2-1 1-4-3zm-6-3h2v-1h1v1h2v2h-1v1l-1-1h1v-2h-1l-3 3c2-1 2-2 2-3h-2zm6 2a23 23 0 0 0 0-2h4v2h-4zm1-2v2h2v-2h-2zM980 687h8l1 1h-2l-2 1v1h5-5v3l-2 1-1-1h2v-3h-4-1 5v-1h1l2-1h-6l-1-1z"/></g><path fill="none" stroke="#2EA7E0" stroke-miterlimit="10" d="M939 702h54v21h-54zM939 723h54v21h-54zM940 744h54v21h-54z"/><g fill="#2EA7E0"><path d="M961 709v1h-1l-1 4-1-3-1 3-1-4h-1v-1h2v1h-1l1 3 1-3h-1v-1h2v1h-1l1 3 1-3h-1v-1h2zM962 710v-1h4v1h-1-1v4h2-4 2v-4h-2zM969 712v2h-2 1v-4h-1v-1h3l2 1v2h-3zm1 0h1v-1-1h-2v2h1z"/></g><g fill="#2EA7E0"><path d="M962 732h-1l-1 5h-1v-3l-1 3h-1l-1-5h1l1 3 1-2-1-1h2-1l1 3 1-3h-1 2zM963 732h3-1v5h1-3 1v-5h-1zM969 734v3h1-2l1-1v-4h-1 4l1 1-1 1h-3zm1 0h2v-1-1h-2-1v2h1z"/></g><g fill="#2EA7E0"><path d="M951 753v-2h1v2h2-2v3l2-1-4 2v-1h1v-3h-2 2zm8 1l-1 1-1 2h2v-1l1 1h-7 3l1-2 1-2 1 1zm-5-2h5l1 1h-5-1v-1zm1 1l1 2v1l-1-1v-2zm1-2h1v1h-1v-1zM964 755h1l-3 1h-1l2-1v-2h-2 2v-2h1v2l1-1 1 1h-2v2zm6-3l-1 1h2v1l-2 2 1 1h1l-2-1-4 2v-1l3-1-1-2-1 2-3 2 2-2 1-2v-2h-1l-1-1h6v1zm-3 0v1l2 3 1-2h-2v-1h1v-1h-2zM975 756l1 1-1 1v-4l-2 2 2-3h-2v-1h2v-1h1-1v1h1l1 1h-2l2 1h-1-1v2zm6-1v2h-1v-2h-2v2l-1 1v-4-1h3l-1-1h1l2-1h-5 6l-1 1h-1v1h1l1-1v5l-1 1-1-1h1v-2h-1zm-3-2v1h2v-1h-2zm0 1v1h2v-1h-2zm3-1v1h1v-1h-1zm0 1v1h1v-1h-1z"/></g><path fill="none" stroke="#2EA7E0" stroke-miterlimit="10" d="M915 174h95v609h-95z"/><path fill="#E60012" d="M58 79l33 5-34 4z"/><path fill="#F7F8F8" d="M57 88l-33-5 34-4z"/><path stroke="#EFEFEF" stroke-miterlimit="10" d="M8 88l2-1v-5l-1-1H8v-1h2l5 7v-4l-1-2v-1h3v1h-1v7l-6-6v5l1 1H8zM336 216l2-1v-5l-1-1h-1v-1h2l5 7v-4l-1-2v-1h3v1h-1v7l-6-6v5l1 1h-3zM105 82l-2-1-1 1 1 2c1 0 2 0 2 2l-2 2h-2v-2l2 2 2-2-2-2s-2 0-2-2l2-2 2 1v1z"/><path fill="none" stroke="#2EA7E0" stroke-miterlimit="10" d="M1076 121h37v51h-37zM1076 147h37"/><g fill="#036EB8"><path d="M1086 129h4l1 2-1-1-1-1h-1-1v4h2v-1h1v-1 3l-1-1h-2v4h2l1-1 1-1v2h-5l1-1v-6l-1-1zM1094 133l-1-1-1-1 1-1 1-1h2l1 2h-1l-1-1-1-1-1 1v2l2 1 1 1 1 1-1 2h-3-1v-2l1 1 2 1 1-1v-1-1l-2-1zM1099 130l-1-1h2l2 1 1 3-1 3-2 1h-2l1-1v-6zm3 3v-3a2 2 0 0 0-3-1v8h1l2-1v-3z"/></g><g fill="#036EB8"><path d="M1086 156h4l1 2-1-1-1-1h-1-1v4h2v-1h1v-1 3l-1-1h-2v4h2l1-1 1-1v2h-5l1-1v-6l-1-1zM1094 160l-1-1-1-1 1-1 1-1h2l1 2h-1l-1-1-1-1-1 1v2l2 1 1 1 1 1-1 2h-3-1v-2l1 1 2 1 1-1v-1-1l-2-1zM1099 157l-1-1h2l2 1 1 3-1 3-2 1h-2l1-1v-6zm3 3v-3a2 2 0 0 0-3-1v8h1l2-1v-3z"/></g><path fill="none" stroke="#2EA7E0" stroke-miterlimit="10" d="M1076 173v84M1076 257h172M1248 257v-71M1248 186h-44"/><g fill="#2EA7E0"><path d="M1135 219v7l-1 1v-8l-2 3 2-4 1-2h1-1l-1 3h1zm4 5v2l-1 1v-8l-1 4-2 2a15 15 0 0 0 3-6h-3 3v-2-1h1v3h2l1-1 1 1h-4l2 3 2 2h-1l-2-2-1-3v5zM1146 223v2l-1 1v-1c0-1 0 0 0 0l1-2zm3-8l1 1h-1v1h3v-1l1 1v5h-7a68 68 0 0 0 0-6l1 1h1l1-2zm-2 2v1h5v-1h-5zm0 2v1h5v-1h-5zm0 1v1h5v-1h-5zm0 5v-2h1v2h4v-1 1h1l-2 1h-3l-1-1zm2-3l1 1c0 1 0 0 0 0v1l-1-2zm4 1l1 1 1 1h-1l-1-2zM1158 216h7l1 1h-8v9h7l1-1v1h-9v-8-2h1zm1 2l3 3 1-2 1-1h1l-1 1-1 2 2 2v1h-1l-1-1-1-1a20 20 0 0 1-3 3v-1l1-1 2-2-3-3z"/></g><g fill="#2EA7E0"><path d="M1143 354h1v1h-2v-1h1v-6l-2 7-2-7v6h1v1h-2v-1h1v-7h-1 2l1 6 2-6h1-1v7zM1146 355l-1-1v-1-1l3-1v-1h-1-1v1h-1v-1h1l1-1 2 1v4h1v-1 1l-1 1v-1h-1l-1 1h-1zm-1-2l1 1h2v-3l-2 1-1 1zM1153 353v1h2v-1 1l-1 1-1-1-1-1v-3h-1v-1h1l1-1v1h2v1h-2v3zM1158 352v2h3v-1 1l-2 1-1-1-1-2 1-2 1-1 2 1v2h-3zm3 0l-1-2h-1-1v2h3zM1165 351l1-1 1-1 1 1h-1-1l-1 1v3h1v1h-3v-1h1v-4h-1v-1a5 5 0 0 0 1 0h1v2zM1171 350h-2v-1h2c1 0 0 0 0 0h1v5h1v1h-4v-1h2v-4zm0-4l1 1v1h-1v-1-1zM1176 355l-1-1v-1-1l3-1v-1h-1-1v1h-1v-1h1l1-1 2 1v4h1v-1 1l-1 1v-1h-1l-1 1h-1zm-1-2l1 1h2v-3l-2 1-1 1zM1182 347a3 3 0 0 0 1-1h1v8h1v1h-4v-1h2v-7h-2 1z"/></g><path fill="none" stroke="#2EA7E0" stroke-miterlimit="10" d="M1076 257h172v207h-172zM1076 715h40v55h-40z"/><g fill="#2EA7E0"><path d="M1093 733v2h-4v-1-1h1v2h2v-2-1l-2-1 2-1v-1-1h-2v1l-1 1v-1-1l2-1 1 1 1 1v1l-2 1 2 1v1zM1095 728h-1v-1h2l3 1 1 3-1 3-3 1h-2 1v-7zm4 3l-1-3a2 2 0 0 0-2 0v7l2-1 1-3zM1086 747h-2l-1 2h1v1h-2v-1h1l2-7 2 7h1v1h-2v-3zm-1-4l-1 3h2l-1-3zM1094 746l-1 3-2 1-2-1-1-3 1-3 2-1 2 1 1 3zm-5 0l1 3 1 1 1-1 1-3-1-3-1-1-1 1-1 3zM1095 742h4-1-1v7h2v1h-4v-1h2v-7h-2z"/></g><path fill="none" stroke="#2EA7E0" stroke-miterlimit="10" d="M1116 727h38v22h-38zM1163 713h33v36h-33zM1211 714h33v36h-33z"/><g fill="#2EA7E0"><path d="M1173 730h4-1v8h1-4 2v-7-1h-2zM1182 738l-3-1v-3l1-3 2-1h1l1 2-1-1-1-1-2 1v6l2 1 1-1 1-1-1 2h-1zM1189 738h-3 1v-7-1h-1v1l-1 1v-2h5v2l-1-1-1-1v8h1z"/></g><g fill="#2EA7E0"><path d="M1219 730h4-2v8h2-4 1v-7-1h-1zM1227 738l-2-1-1-3 1-3 2-1h2v2l-1-1-1-1-2 1v6l2 1 1-1 1-1-1 2h-1zM1234 738h-3 1v-7-1l-1 1-1 1v-2h5v2l-1-1v-1h-1v8h1z"/></g><path fill="none" stroke="#2EA7E0" stroke-miterlimit="10" d="M1076 614h59v66h-59z"/><g fill="#2EA7E0"><path d="M1091 648l2 4h1-2l-1-3-1 2v1h-2 1l2-4-2-3h-1v-1h2v1l1 3 1-3v-1h2v1h-1l-2 3zM1094 648h6-6zM1105 646a2 2 0 0 1-1 2l1 4h1-2l-1-4h-1v4h-2 1v-7h-1v-1h3l2 1v1zm-3 2h2v-2-1h-2v3zM1108 652h-1v-1-1l3-1v-1l-1-1-1 1c0 1-1 0 0 0l-1 1v-1-1h3l1 1v4l1-1v1h-1-1-1-1zm-1-1l1 1h1l1-1v-2l-2 1-1 1zM1115 651l1-3v-1h2-1v1l-2 5-1 1h-1v-1h1v0h1v-1l-2-4v-1h1v1l1 3z"/></g><path fill="none" stroke="#2EA7E0" stroke-miterlimit="10" d="M1076 465h172v318h-172z"/><path fill="none" stroke="#2EA7E0" stroke-miterlimit="10" d="M1155 612h68v41h-68z"/><g fill="#2EA7E0"><path d="M1178 633l1 3v1h1-2v-1l-1-3-1 3v1h-1v-1l2-3-2-3v-1h2-1v1l1 2 1-2 1-1h-1 2-1v1l-1 3zM1181 633h5-5zM1192 631a2 2 0 0 1-2 2l1 3v1h1-1l-2-4h-1v4h1-2v-7-1h4l1 2zm-4 2h1l1-1 1-1-1-1-1-1h-1v4zM1195 637h-2v-1-2h3v-1-1h-1-1v1h-1l1-1h3v5c0 1 0 0 0 0l1-1v1h-1l-1-1-1 1zm-2-1h1l1 1 1-1v-2h-2l-1 2zM1201 636l1-3v-1h2-1v1l-2 4v1l-1 1h-1v-1h2v-1l-2-5h2-1l1 4z"/></g><path fill="none" stroke="#2EA7E0" stroke-miterlimit="10" d="M1076 511h78v53h-78z"/><g fill="#2EA7E0"><path d="M1092 543h-2v-1h1v-6-1h-1-1v2h-1l1-2h4l1 2h-1v-2h-1-1v7l1 1zM1096 539l1-1h2v0h-1-1l-1 2v2h1v1h1-4 1l1-1v-4h-2 1a5 5 0 0 0 1-1v2zM1102 543h-1v-1-2l3-1v-1h-2v1h-1v-1h3l1 1v3h1v1h-1-1v-1l-1 1h-1zm-1-1h1v1h1l1-1v-2h-2l-1 2zM1109 538h-2 2v-1 5l1 1h1-4 1l1-1v-4zm0-3h1l-1 1-1-1h1zM1112 543h1v-5h-1 1l1-1v1h1c1 0 0 0 0 0h2v5h1-2v-4-1h-1l-1 1v4h-2zM1118 543h1v-5h-1 1l1-1v1h1c1 0 0 0 0 0h2v5h1-2v-4-1h-1l-1 1v4h-2zM1127 538h-2 2v-1 5l1 1h1-4 1l1-1v-4zm0-3h1l-1 1-1-1h1zM1130 543h1v-5h-1 1l1-1v1h1c1 0 0 0 0 0h2v5h1-2v-4-1h-1l-1 1v4h-2zM1140 542h1v2l-2 1-2-1v-1l1-1h-1v-1h1l-1-1v-1-1h3c1 0 0 0 0 0h1v-1l1 1h-1-1l1 1-1 1-1 1a2 2 0 0 1-1 0v1h2zm-2 0l-1 1 1 1h2l1-1h-1l-1-1h-1zm0-3v1l1 1 1-1v-1-1h-1-1v1z"/></g><path fill="none" stroke="#2EA7E0" stroke-miterlimit="10" stroke-dasharray="15" d="M8 808h516v48H8z"/><path fill="none" stroke="#2EA7E0" stroke-miterlimit="10" d="M13 817h40v31H13zM13 878h40v42H13zM53 817h40v31H53zM93 827h88v13H93zM181 818h40v31h-40zM292 818h40v31h-40zM333 818h40v31h-40z"/><path fill="none" stroke="#2EA7E0" stroke-miterlimit="10" d="M372 827h88v13h-88zM461 818h40v31h-40zM53 889h15v21H53z"/><path fill="none" stroke="#2EA7E0" stroke-miterlimit="10" d="M67 878h31v38H67z"/><g fill="#2EA7E0"><path d="M21 899l1-1-1 1v6l-1-1v-1l1 1v-4l-1 1-1-1 2-1v-2h-1l-1-1h2v-2h1l-1 1v1h1l1 1h-2v2zm4 0v1h1l1 1-1 3v1l-1-1v-1l1 1v-1-2h-1l-1 3-2 1 1-2 1-2h-1l-1-1h2v-2l1 1zm1 0l1-1h-4v1h-1l1-1v-1 1h4v-1l1 1-1 1h-1zm-1-3v-2h1v2h1v-1l1 1h-2v1h-1v-1h-1v0h-2 2v-2h1l-1 1v1h1zM33 898l-2 1v4l-1 2-1-1v-1l2 1v-4l-2 1v-1l2-1v-3 1l1-2h-2-1 3v-1l1 1h-1l-1 2h1-1v2l2-1zm1-2v-2l1 1h-1v8l1 1h1v-1-2h1v3h-2l-1-1v-7zM40 899v6h-1a360 360 0 0 0-1-2v-1l1-5h-1 1v-3h1v3l1-1v1h-1v1l1 1v1l-1-1zm2-4v4c0 3 0 4-2 6l2-6v-2-2h3l-1 1v7l1 1v-1l1-1v2h-1l-1-1v-8h-2z"/></g><g fill="#2EA7E0"><path d="M76 890v5l-1 1a226 226 0 0 0 0-4l-2 2a14 14 0 0 0 2-5h-2 2v-3-1h1v4l1-1v1h-1v1l1 1v1h-1v-2zm-2-4l1 1v1h-1v-2zm3 0v1l-1 1 1-2zm0 4h4v1a71 71 0 0 1-1 4v1l-2-1h2v-1-3h-1l-1 3-2 2 2-2v-3l-1-1zm1-5l1 1-1 3-1 1 1-2v-3zm1 0h1v3l2 1v1h-1l-1-2-1-3zM87 892l-1-1h1v1h3-3v3h2l1-1 1 1h-7l-1 1v-1h4v-3h-3v1l-1-1h4zm-2-6l1 1-1 1-2 2 1-2 1-2zm2 0v4h-1l1-2-1-3 1 1zm1 1l2 2v0l-2-2zM74 906v-3-2l1 1h-1v4h1v-7l1 1v10h-1v-4l-1 2v-1-1zm4-7l1 1h-1v2h4-2l-1 5c1 2 2 2 3 2l-1 1-2-2-3 2 3-3-1-5-2 3 2-6zm0 3l1 5 1-5h-2zM84 906v-4l-1 2 1-2 1-3 1 1h-1v1h5-3v2h2v-1l1 1h-3v1h2v-1l1 1h-3v1h3v1h-6zm3 1v-1 1h3v-1l1 1h-4l2 2h2l-1 1-1-1-2-2v0l-2 2-2 1a11 11 0 0 0 3-3h-3 4zm-2-6v2h2v-2h-2zm0 2v1h2v-1h-2zm0 1v1h2v-1h-2zm1-5l1 1v1l-1-1v-1z"/></g><path fill="none" stroke="#2EA7E0" stroke-miterlimit="10" d="M99 878h31v42H99z"/><path fill="none" stroke="#2EA7E0" stroke-miterlimit="10" d="M129 878h31v42h-31zM161 878h31v42h-31z"/><path fill="none" stroke="#2EA7E0" stroke-miterlimit="10" d="M191 878h31v42h-31zM223 878h31v42h-31z"/><path fill="none" stroke="#2EA7E0" stroke-miterlimit="10" d="M253 878h31v42h-31zM285 878h31v42h-31zM316 878h31v42h-31zM347 878h31v42h-31zM378 878h31v42h-31zM409 878h31v42h-31zM440 878h31v42h-31zM472 878h31v42h-31z"/><g fill="#2EA7E0"><path d="M108 866v4h-2v-1h1v-7h-1 4v3l-1 1h-1zm0 0l1-1 1-1-1-2h-1v4zM120 862l-1 8h-1v-5l-1 5-1-8h0l1 5 1-4v-1h-1 1l1 5v-5h1zM128 867h-2v3h-1v-1l2-7v-1l2 8v1h-2v-1h1v-2zm-1-5l-1 4h1v-4zM134 866v-1h4v1h-4zM146 867h-2v3h-1v-1h1l1-7 1-1 1 8v1h-1v-3zm-1-5l-1 4h2l-1-4z"/></g><g fill="#2EA7E0"><path d="M390 866v3h1v1h-2v-1h1v-7h-1 4v3l-2 1h-1zm1 0l1-1v-1-2h-2v4h1zM403 862h-1l-1 8-1-5v5h-1l-1-8h1l1 5v-5h1v5l1-5h-1 2zM410 867h-1l-1 1v1h1v1h-2v-1h1l1-7 1-1 1 8h1v1h-2v-1c1 0 1 0 0 0v-2zm-1-5v4h1l-1-4zM417 866v-1h4v1h-4zM426 870v-8h3l1 1-1 1-1 1 2 1v1l-1 2-1 1h-2zm3-7v-1h-2v3h2v-2zm-1 6h1v-2-1l-1-1h-1v4h1z"/></g><path fill="none" stroke="#2EA7E0" stroke-miterlimit="10" d="M31 961h42v25H31zM73 961h79v25H73z"/><path fill="none" stroke="#2EA7E0" stroke-miterlimit="10" d="M151 955h42v38h-42zM332 955h171v38H332zM193 942h111v60H193zM305 965h26v21h-26z"/><g fill="#2EA7E0"><path d="M48 979h-1v-1l-2-1-2 2 2-3v-2-2h-6 3v-2h-1l-1 1v-1h2v-2l1 1h-1v1h2-2v2h3l-1-4 1 1v3h2v-1l1 1h-3l1 4 1-3v1l-1 2 1 2 1-2v3zm-6-5v4l1-1-2 2v-3l-1 1 2-3h-2 3l1-1v1h-2zm-1-2l1 1v1c0 1 0 0 0 0l-1-2zm3 2v1l-1 1 1 1h-1l-1-2 1 1 1-2zm2-5l1 1v1h-1v-2zM51 973v6h-1a381 381 0 0 0-1-2v-1l1-5h-1 1v-3l1 1v2h1-1v2l1 1h-1v-1zm5-1l-1 4 2 2-1 1-2-2c0 1-1 2-3 2l3-3-1-4v3l-1 2-1 2 1-3v-3-4l1 1 2-1 1-1v1l-1 1h-2v2h2l1-1v1zm-3 0l1 4 1-4h-2z"/></g><g fill="#2EA7E0"><path d="M94 976v3h-2 1v-7h-1v-1h3l1 1v3l-1 1h-1zm0-1h1l1-2-1-1h-1v3zM100 979h-2 1v-7h-1l-1 1v-2h4v2l-1-1h-1v7h1zM105 979h1-2 1v-4h-2v4h-1v-8h1v4h2v-3h-1v-1h2v1h-1v7zM108 975l1-1-1 1v6l-1-1v-1l1 1v-4l-1 1-1-1 2-1v-2h-1l-1-1h2v-2h1l-1 1v1h1v1h-1v2zm6 0v5-1h-4v2a106 106 0 0 0 0-7v1l1-1v1h-1v2h1v-1 1h-1v2h2v-6h-3 3v-2h-2a16 16 0 0 0 3-1l1 1h-2v2h2v-1l1 1h-3v6h2v-2h-2 2v-2h-2 2v-1 1zM117 981v-8l-1 3h-1a23 23 0 0 0 3-6h1l-1 1-1 2h1v7l-1 1zm4-8v-3h1-1v3h1l1-1 1 1h-3v3h2v-1l1 1h-3v0h-2-1 3v-3h-2l-1 2a16 16 0 0 0 1-4h1v1l-1 1h2z"/></g><g fill="#2EA7E0"><path d="M241 974v4h1-2v-8h3l1 2-1 1-1 1h-1zm1 0l1-1v-1-1l-1-1h-1v4h1zM247 978h-1v-7-1h-1v2h-1l1-2h3l1 2h-1v-2h-1v8zM253 977v1h-1v-4h-2v4h1-2v-8h2-1v3h2v-3h1v7z"/></g><path fill="none" stroke="#2EA7E0" stroke-miterlimit="10" stroke-dasharray="15" d="M11 934h516v76H11z"/><path fill="none" d="M932 818h47v23h-47z"/><path fill="none" stroke="#2EA7E0" stroke-miterlimit="10" stroke-dasharray="15" d="M660 815h77v59h-77z"/><path fill="none" stroke="#2EA7E0" stroke-miterlimit="10" d="M737 832h175v32H737z"/><path fill="none" stroke="#2EA7E0" stroke-miterlimit="10" stroke-dasharray="15" d="M660 815h327v59H660z"/><g fill="#2EA7E0"><path d="M799 852v2h1v1h-2v-1h1v-5h-1c-1 0 0 0 0 0h5l1 1-1 1-2 1h-2zm2 0l1-1 1-1-1-1h-3v3h2zM817 849l-2 6-1-4-1 4-2-6h2-1l1 4 1-3v-1h-1 1c-1 0 0 0 0 0l1 4 1-4h1zM828 852h-2l-1 2 1 1h-2v-1h1l2-5v-1l2 6h1v1h-2l1-1-1-2zm-1-3l-1 3h2l-1-3zM837 852v-1h6v1h-6zM856 849l-2 2v4h-1v-1-1l2-4h-3l-1 1v-1h5zM857 851h1a2 2 0 0 1 1 0h4v4h-1v-3-1a1 1 0 0 0-1 1v3h-2 1v-3-1h-1l-1 1v3h1-2l1-1v-3h-1z"/></g><g fill="#2EA7E0"><path d="M921 852v3h-2l1-1v-5h-1 5l1 1-1 1-2 1h-1zm1 0l1-1 1-1-1-1h-2v3h1zM938 849l-2 6-1-4-1 4-2-6h1l1 4 1-3v-1h-1 2v4l1-4h1zM949 852h-2l-1 2 1 1h-2l1-1 2-5 1-1 2 6v1h-2l1-1-1-2zm-1-3l-1 3h2l-1-3zM959 852v-1h5v1h-5zM975 855l-2-1-1-2 1-3h4l1 1h-1l-1-1h-1l-2 1v4l2 1 1-1 1-1h1l-1 1-2 1z"/></g><g fill="#2EA7E0"><path d="M946 824v2l1 1h-2v-6h5v2l-2 1h-2zm2 0l1-1v-1-1h-2-1v3h2zM957 821l-2 6-1-4-1 4-1-6h-1 1l1 4 1-3v-1h-1 2v4l1-4h1zM962 824h-3v3h-1v-1l2-5 1-1 2 6 1 1h-2v-3zm-1-3l-2 3h3l-1-3zM948 833v1l2 2h-1l-1-2-1 3-1 1-1 1-2-1h3v-1l1-4h-3l-1 2-1 2-3 2h-1l3-2 1-2 1-2h-2-2 4v-3l1 1v2h3v-1l1 1zm-7 1l-1 2h-1v-1l2-1zM956 831h1l-1 1-4 3 3-2 1-2zm-2 7h6l-1-2 2 2v1c-1 1 0 0 0 0l-1-1a104 104 0 0 0-6 1l-1-1 1-1 2-1 1-2h1v1l-4 3zm5-7a6 6 0 0 0 4 4h-1l-2-2-2-2h1zM971 838v1h-1v-3l-5 3 4-3h-4 5v-1h2l-1 1h4l1-1 1 1h-6l6 2-1 1-5-3v2zm-1-8l1 1h4l1 1h-5 4l-1 1v2h-7v-1-2h3v-2zm-2 3v1h6v-1h-6zm0 1v1h6v-1h-6z"/></g><path fill="none" stroke="#2EA7E0" stroke-miterlimit="10" d="M995 870h62v30h-62zM1057 840h62v30h-62z"/><path fill="none" stroke="#2EA7E0" stroke-miterlimit="10" d="M1057 869h62v30h-62zM1120 840h62v30h-62z"/><path fill="none" stroke="#2EA7E0" stroke-miterlimit="10" d="M1120 869h62v30h-62zM1182 869h62v30h-62z"/><path fill="none" stroke="#2EA7E0" stroke-miterlimit="10" d="M1182 840h62v30h-62z"/><g fill="#2EA7E0"><path d="M1113 829l-1 1-1 1 2 3v1h-1l-2-4h-1v4h1-3 1v-7-1h-1 5l1 2zm-4 2h1l1-1 1-1-1-1-1-1h-1v4zM1115 836h-1l6-10-5 10zM1127 829l-1 1-1 1 2 3v1h1-2l-2-4h-1v4h1-3 1v-7-1h-1 5l1 2zm-4 2h1l2-1v-1-1l-2-1h-1v4z"/></g><path fill="none" stroke="#2EA7E0" stroke-miterlimit="10" stroke-dasharray="15" d="M546 900h48v43h-48z"/><path fill="none" stroke="#2EA7E0" stroke-miterlimit="10" d="M995 841h62v30h-62zM603 885h38v63h-38zM642 885h38v63h-38zM680 885h38v63h-38zM719 885h38v63h-38zM759 885h38v63h-38zM797 885h38v63h-38zM835 885h38v63h-38zM874 885h38v63h-38zM912 885h38v63h-38zM951 884h38v63h-38zM546 958h33v53h-33zM579 958h33v53h-33z"/><path fill="none" stroke="#2EA7E0" stroke-miterlimit="10" d="M611 958h33v53h-33zM645 958h33v53h-33zM678 958h33v53h-33z"/><path fill="none" stroke="#2EA7E0" stroke-miterlimit="10" d="M710 958h33v53h-33zM743 958h33v53h-33z"/><path fill="none" stroke="#2EA7E0" stroke-miterlimit="10" d="M775 958h33v53h-33zM808 958h33v53h-33zM841 958h33v53h-33zM874 958h33v53h-33zM911 958h33v53h-33z"/><path fill="none" stroke="#2EA7E0" stroke-miterlimit="10" d="M939 958h33v53h-33z"/><path fill="none" stroke="#2EA7E0" stroke-miterlimit="10" d="M971 958h33v53h-33zM1004 958h33v53h-33z"/><path fill="none" stroke="#2EA7E0" stroke-miterlimit="10" d="M1069 1011h-32l-1-53h33zM1069 958h33v53h-33zM1102 958h33v53h-33zM1135 958h33v53h-33z"/><path fill="none" stroke="#2EA7E0" stroke-miterlimit="10" d="M1167 958h33v53h-33zM1201 958h33v53h-33z"/><g fill="#2EA7E0"><path d="M1004 855l-2-1v-1l1-1 2-1h2c1 0 0 0 0 0v2l-1-1-2-1-1 1v2l2 1 2 1v2l-2 1h-2-1v-2l1 1 2 1 1-1 1-1-1-1-2-1zM1014 858l1 1h-2l1-1v-6h-1l-1 7h-1l-2-7v6l1 1h-2 1v-7-1h-1 2l2 6 1-6h2l-1 1v6zM1020 859h-3 1v-7-1l-1 1-1 1v-2h5l1 2-1-1-1-1h-1v8h1zM1023 855h6-6zM1036 853l-1 1-1 1 1 3 1 1h-1l-2-4h-1v4h-2 1v-7-1h-1 5l1 2zm-4 2h1l1-1 1-1-1-1-1-1h-1v4zM1037 860l6-10-6 10zM1050 853l-1 1-1 1 2 3v1h-1l-2-4h-1v4h1-3 1v-7-1h-1 5l1 2zm-4 2h1l1-1 1-1-1-1-1-1h-1v4z"/></g><g fill="#2EA7E0"><path d="M1069 855l-3-1v-1l1-1 2-1h2v2l-1-1-2-1-1 1v2l2 1 2 1v2l-2 1h-2-1v-2l1 1 2 1 1-1 1-1-1-1-1-1zM1078 858l1 1h-2l1-1v-6h-1l-1 7h-1l-1-7h-1v6l1 1h-2 1v-7-1h-1 2l2 6 1-6h2l-1 1v6zM1084 859h-3 1v-7-1l-1 1-1 1v-2h5l1 2-1-1-1-1h-1v8h1zM1087 855h6-6zM1100 853l-1 1-1 1 1 3 1 1h-1l-2-4h-1v4h-2 1v-7-1h-1 5l1 2zm-4 2h1l1-1 1-1-1-1-1-1h-1v4zM1101 860l6-10-6 10zM1114 853l-1 1-1 1 2 3v1h-1l-2-4h-1v4h1-3 1v-7-1h-1 5l1 2zm-4 2h1l1-1 1-1-1-1-1-1h-1v4z"/></g><g fill="#2EA7E0"><path d="M1131 855l-2-1v-1-1l2-1h3v2l-1-1-2-1-1 1-1 1 1 1 2 1 2 1v1l-1 1-2 1h-1-1v-2l1 1 2 1 1-1v-1-1l-2-1zM1141 858v1h1-2v-7l-2 7-2-7v7h1-2 1v-7-1h-1 2l1 6 2-6h1v7zM1147 859h-3 1v-7-1l-1 1-1 1h-1l1-2h5l1 2h-1v-1l-1-1h-1v8h1zM1150 855h6-6zM1162 853v1l-2 1 2 3v1h1-2l-1-4h-2v3l1 1h-2v-7-1h5v2zm-4 2h2l1-1v-1-1l-2-1-1 1v3zM1164 860l5-10h1l-6 10zM1177 853l-1 1-1 1 1 3 1 1h-1l-2-4h-1v4h-2 1v-7-1h-1 5l1 2zm-4 2h1l1-1 1-1-1-1-1-1h-1v4z"/></g><g fill="#2EA7E0"><path d="M1191 855l-2-1-1-1 1-1 2-1h2v2l-1-1-1-1-2 1v2l2 1 2 1 1 1-1 1-2 1h-1-1l-1-2 2 1 1 1 2-1v-1l-1-1-1-1zM1201 858v1h1-3 1v-7l-2 7-2-7v7h-1v-7-1h1l2 6 2-6h2-1v7zM1207 859h-3 1v-7-1h-1l-1 1-1 1 1-2h5v2l-1-1-1-1v8h1zM1209 855h6-6zM1222 853l-1 1-1 1 2 3v1h1-2l-2-4h-1v4h1-3 1v-7-1h-1 5l1 2zm-4 2h1l2-1v-1-1l-2-1h-1v4zM1224 860h-1l6-10-5 10zM1236 853v1l-2 1 2 3v1h1-2l-2-4h-1v4h1-3 1v-7-1h-1 6v2zm-4 2h1l2-1v-1-1l-2-1h-1v4z"/></g><g fill="#2EA7E0"><path d="M1007 886h-2l-1 2v1h1-2l3-8 3 8h-2 1v-1l-1-2zm-1-4l-1 4h2l-1-4zM1015 889h-3 1v-7h-1-1l-1 1 1-2h5v2l-1-1h-1v7h1zM1017 882v-1h6v2l-1-1h-3v3h2v-1h1v2h-1v-1h-2v4h3l1-2v2h-6 1v-7h-1zM1024 885h6-6zM1037 883v2h-2l2 4h1-2l-2-4h-1v4h1-3 1v-7h-1v-1h4l1 1 1 1zm-4 2h3v-2-1h-3v3zM1039 890h-1l6-10-5 10zM1051 883v2h-2l2 4h1-2l-2-4h-1v4h1-2v-8h3l2 1v1zm-4 2h3v-2-1h-2-1v3z"/></g><g fill="#2EA7E0"><path d="M1069 886h-3v3h1-2l2-8h1l2 8h1-2v-3zm-1-4l-2 4h3l-1-4zM1076 889h-2 1v-7h-1-1l-1 1v-2h6v2l-1-1h-1-1v7h1zM1079 882v-1h5l1 2-1-1h-3v3h2v-1h1v2h-1v-1h-2v4h3l1-2v2h-6 1v-7h-1zM1086 885h6-6zM1099 883l-1 2h-1l2 4h1-2l-2-4h-1v4h1-3 1v-7h-1v-1h3l2 1 1 1zm-4 2h2l1-2-1-1h-2v3zM1101 890h-1l6-10-5 10zM1113 883l-1 2h-1l2 4h1-2l-2-4h-1v4h1-3 1v-7h-1v-1h3l2 1 1 1zm-4 2h3v-2-1h-3v3z"/></g><g fill="#2EA7E0"><path d="M1132 885h-2l-1 2v1h1-2 1l2-8h1l2 8h1-3 1v-1l-1-2zm-1-4l-1 4h2l-1-4zM1140 888h-3 1v-7h-2v1h-1l1-2h5l1 2h-1v-1h-2v7h1zM1143 881v-1h5l1 2h-1l-1-1h-2-1v3h3v-1 1h-3v4h4v-2l1 1-1 1h-5v-7zM1150 884h6-6zM1162 882v2h-2l2 4h1-2l-1-4h-2v4h1-2v-8h3l2 1v1zm-4 2h3v-2-1h-3v3zM1164 889l5-10h1l-6 10zM1177 882l-1 2h-1l1 4h1-1l-2-4h-1v4h-2 1c1 0 0 0 0 0v-7h-1v-1h3l2 1 1 1zm-4 2h2l1-2-1-1h-2v3z"/></g><g fill="#2EA7E0"><path d="M1189 880h1v-7h-1v-1h3l2 1 1 1-1 1-1 1 2 1v1l-1 2h-5zm5-6l-1-1h-2v3h1l1-1 1-1zm-2 6h2v-2-1l-2-1h-1v4h1zM1199 873h-1l-1 3 1 3 1 1h1l1-1v-1l-1-1h2v3h-2-1l-2-1-1-3 1-3 2-1h1l1 1v-1l1 2h-1l-1-1h-1zM1207 877h-2l-1 2v1h1-2 1l2-8h1l2 8h1-3 1v-1l-1-2zm-1-4l-1 4h2l-1-4zM1195 889l-1 1-1 1 1 3h1v1h-1l-2-4h-1v4h-2v-1h1v-7h-1 5l1 2zm-4 1h2l1-1-1-2h-2v3zM1196 887h5l1 1-1-1h-3v3h2v-1h1v3h-1v-1h-2v3h3l1-1v2h-6v-1h1v-7h-1zM1210 887h-1l-1 8h-1l-1-5-1 5-2-8h2-1l1 5 1-4v-1h-1 2v5h1l1-5h-1 2zM1216 891v3l-3 1-2-1-1-3 1-3 2-1 3 1v3zm-5 0l1 3 1 1 2-1v-3-3l-2-1-1 1-1 3zM1223 889l-1 1-1 1 2 3h1v1h-2l-2-4h-1v3h1v1h-3v-1h1v-7h-1 5l1 2zm-4 1h3v-1-2h-3v3zM1231 895h-3v-1h1l-2-4-1 1v3h1v1h-3v-1h1v-7h-1 3-1v4l3-3v-1h-1 2l-1 1-2 2 3 4h1v1z"/></g><g fill="#2EA7E0"><path d="M618 896v1l-2 1 2 3v1h1-2l-2-4h-1v4h1-2v-7-1h5v2zm-4 2h1l2-1v-1-1l-2-1h-1v4zM622 902h-3 1v-7-1h-1 6l1 2-2-1-1-1h-2v4h2l1-1v-1 2h-3v4h1zM626 902h1v-7-1h-1 5l1 2v1l-2 1h2l1 2-1 1-2 1h-4zm5-6v-2h-3v3h3v-1zm-1 6l1-1 1-1-1-2h-3v4h2z"/></g><g fill="#2EA7E0"><path d="M660 898h-3v3h-2 1v-1l2-7h1l2 7 1 1c1 0 0 0 0 0h-2v-3zm-1-4l-2 4h3l-1-4zM667 901h-3 1v-7-1l-1 1-1 1v-2h5l1 2-1-1-1-1h-1v8h1zM670 893h5l1 2-1-1-2-1h-1l-1 1v3h2l1-1c0-1 0 0 0 0v-1 2h-3v3l1 1h1l2-1 1-1-1 2h-5l1-1v-6l-1-1z"/></g><g fill="#2EA7E0"><path d="M701 895l-1 1-1 1 1 4h1-1l-2-4h-1v4h-2 1v-7-1h-1 3l2 1 1 1zm-4 2h1l1-1 1-1-1-1-1-1h-1v4zM704 901h-2 1v-7-1h-1 6v2l-1-1-1-1h-2v4h2v-1h1v2h-1v-1h-2v4zM709 901h1v-7-1h-1 3l2 1 1 1-1 1-1 1 2 1v1l-1 2h-5zm5-6l-1-1-1-1h-1v4h1l1-1 1-1zm-2 6l2-1v-1-2h-3v4h1z"/></g><g fill="#2EA7E0"><path d="M737 900h-3v3h-2 1v-1l2-7h1l2 7 1 1c1 0 0 0 0 0h-2v-3zm-1-4l-2 4h3l-1-4zM744 903h-3 1v-7-1l-1 1-1 1v-2h5l1 2-1-1-1-1h-1v8h1zM747 895h5l1 2-1-1-2-1h-1l-1 1v3h2l1-1c0-1 0 0 0 0v-1 2h-3v3l1 1h1l2-1 1-1-1 2h-5l1-1v-6l-1-1z"/></g><g fill="#2EA7E0"><path d="M774 897v1l-2 1 2 4h1-2l-1-4h-2v4h1-2v-7-1c0-1 0 0 0 0h3l2 1v1zm-4 2h2l1-1v-1-1l-2-1h-1v4zM778 903h-2v-7-1h5l1 2-1-1-2-1h-1-1v4h3v-1 1h-3v4h1zM782 903h1v-7-1h-1 4l2 1v2l-1 1 1 1 1 1-1 2h-6zm5-6v-1l-2-1h-1v4h2l1-1v-1zm-1 6l1-1 1-1-1-2h-3v4h2z"/></g><g fill="#2EA7E0"><path d="M812 900h-2v2 1h-2 1v-1l2-7h1l2 7v1h1-3 1v-1l-1-2zm-1-4l-1 4h2l-1-4zM820 903h-3 1v-7-1l-1 1-1 1h-1l1-2h5l1 2h-1v-1l-1-1h-1v8h1zM823 895h5v2l-1-1-1-1h-1-1v4h2l1-1c1-1 0 0 0 0v-1 2h-3v4h2l1-1 1-1h1l-1 2h-5v-7-1z"/></g><g fill="#2EA7E0"><path d="M850 897v1l-2 1 2 4h1-2l-2-4h-1v4h1-2v-7-1c0-1 0 0 0 0h3l2 1v1zm-4 2h1l2-1v-1-1l-2-1h-1v4zM854 903h-3 1v-7-1h-1 6l1 2-1-1-2-1h-1-1v4h3v-1 1h-3v4h1zM858 903h1v-7-1h-1 4l2 1v2l-1 1 1 1 1 1-1 2h-6zm5-6v-1l-2-1h-1v4h2l1-1v-1zm-1 6l1-1 1-1-1-2h-3v4h2z"/></g><g fill="#2EA7E0"><path d="M887 900h-2l-1 2v1h1-2v-1l3-7 2 7 1 1h-2 1l-1-1v-2zm-1-4l-1 4h2l-1-4zM894 903h-2l1-1v-6l-1-1-1 1-1 1v-2h6v2l-1-1-1-1h-1v7l1 1zM897 895h5l1 2-1-1-1-1h-2v4h1l1-1c0-1 0 0 0 0v-1h1v3h-1v-1h-2v4h2l1-1 1-1v2h-6 1v-7-1h-1z"/></g><g fill="#2EA7E0"><path d="M934 896v-1h-1 3l2 1 1 3-1 3-3 1h-2 1v-7zm4 3v-3l-2-1h-1v8l2-1 1-3zM942 900v2l2 1a2 2 0 0 0 2-1l-1 1h-2-2v-3-1l2-1h2l1 2h-4zm3 0v-1l-2-1-1 1v1h3zM949 899l1-1h2l1 2-1 3h-2-1c-1 0 0 0 0 0h-1v-7-1h-1 2v4zm0 3v1h1l2-1v-1-2l-1-1h-1l-1 2v2zM957 903l1-1h1v-3-1h-1 2v5h-1v-1l-1 1h-3v-4-1h-1 2v4l1 1zM965 902h2v1l-1 1-2 1-2-1v-1l1-1h-1v-1h1l-1-1 1-2h4v0h-1v3h-2a2 2 0 0 1-1 0v1h2zm-2 0l-1 1v1h1l1 1 2-1v-1a19 19 0 0 0-3-1zm0-2a1 1 0 0 0 1 1h1l1-1-1-2h-1-1v2z"/></g><g fill="#2EA7E0"><path d="M551 966h-2l-1 2v1h1-3 1v-1l3-7h1l2 7v1h1-3 1v-1l-1-2zm-1-4l-1 4h2l-1-4zM562 969h-3 1v-1l-2-3-1 1v3h1-3 1v-7-1h-1 3-1v4l3-3-1-1h3l-1 1h-1l-2 2 3 4 1 1zM570 961l-2 4-1 2v2h-1l-1-1 1-2 3-4h-4l-1 1v-2h6zM577 963l-1-1-1-1-2 1v2h-1v-1l1-1 2-1 2 1 1 1-1 1-1 1a49 49 0 0 0-4 3h5v-1h1l-1 2h-5l1-2 2-1 1-2 1-1zM551 981h-2l-1 1v1h1v1h-3v-1h1l3-7 1-1 2 8h1v1h-3v-1h1l-1-2zm-1-5l-1 4h2l-1-4zM560 984h-3v-1h1v-7h-1-1l-1 1v-1h6l1 1-1-1h-2v7h1v1zM563 976h6l1 1-1-1h-4v3h3v-1 3-1l-1-1h-2v4h4l1-1v2h-7v-1h1v-7h-1z"/></g><g fill="#2EA7E0"><path d="M585 966h-3l-1 2v1h1-2 1v-1l2-7h1l3 7v1h1-3 1v-1l-1-2zm-1-4l-2 4h3l-1-4zM596 969h-3 1l-1-1-2-3-1 1v3h1-3 1v-7-1c0-1 0 0 0 0h-1 2v4l3-3s1 0 0 0v-1h2v1h-1l-2 2 3 4v1h1zM603 961l-2 4-1 2v2h-1v-1-2l3-4h-3-1l-1 1 1-2h5zM610 968v1h2-5 2v-2h-4v-1l4-5h1v5h2v1h-2v1zm-1-6l-4 4h4v-4zM585 981h-3l-1 1v1h1v1h-2v-1h1l2-7 1-1 3 8h1v1h-3v-1h1l-1-2zm-1-5l-2 4h3l-1-4zM594 984h-4v-1h1v-7h-1l-1 1h-1l1-1h6v1l-1-1h-1-1v7h2v1zM597 976h6l1 1h-1l-1-1h-3-1v3h3l1-1v3-1h-1l-1-1h-2v4h4l1-1h1l-1 2h-6v-8z"/></g><g fill="#2EA7E0"><path d="M617 966h-3v3h1-3 1v-1l3-7h1l2 7v1h1-3 1v-1l-1-2zm-1-4l-1 4h2l-1-4zM628 969h-3 1v-1l-2-3-1 1v3h1-3 1v-7-1h-1 3-1v4l3-3-1-1h3l-1 1h-1l-2 2 3 4v1h1zM636 961l-3 4v4h-1l-1-1 1-2 3-4h-5v1-2h6zM642 968l1 1h1-4 1v-2h-4v-1l5-5v5h2v1h-2v1zm-1-6l-3 4h3v-4zM617 981h-3v2h1v1h-3v-1h1l3-7 1-1 2 8h1v1h-3v-1h1l-1-2zm-1-5l-1 4h2l-1-4zM626 984h-3v-1h1v-7h-1-1l-1 1v-1h6l1 1-1-1h-2v7h1v1zM629 976h6l1 1-1-1h-4v3h3v-1 3-1l-1-1h-2v4h4l1-1-1 2h-6v-1h1v-7h-1z"/></g><g fill="#2EA7E0"><path d="M651 961l-2 1v6l2 1 1-1v-2h-1 1c-1 0 0 0 0 0v3h-1l-2-1-1-3 1-3 1-1h2v2l-1-1v-1zM655 965v4h1-2v-7-1h2l2 1v3h-3zm1 0h1l1-2-1-1-1-1h-1v4h1zM662 966h-2v3h1-2l1-1 1-7h1l2 7v1h-2 1v-1l-1-2zm-1-4v4h1l-1-4zM665 962v-1c0-1 0 0 0 0h2l2 1 1 3-1 3-2 1h-2v-7zm4 3l-1-3-1-1h-1v8h1l1-1 1-3zM673 969l-2-1-1-3 1-3 2-1h2v2l-1-1-1-1-1 1-1 3 1 3 1 1 1-1 1-1-1 2h-1z"/></g><g fill="#2EA7E0"><path d="M683 961l-1 1-1 3 1 3 1 1h1v-3h-1 3-1v3h-2l-2-1-1-3 1-3 2-1h1l1 2-1-1-1-1zM687 965v4h1-2 1v-7-1h-1 3l1 1 1 1-1 2h-3zm1 0h2v-2-1l-2-1h-1v4h1zM695 966h-2l-1 2v1h1-2 1v-1l2-7 2 7v1h1-2v-3zm-1-4l-1 4h2l-1-4zM698 962v-1h-1 2l2 1 1 3-1 3-2 1h-2 1v-7zm3 3v-3l-2-1v8l2-1v-3zM706 969l-2-1-1-3 1-3 2-1h1l1 2h-1v-1l-1-1-2 1v6l2 1 1-1v-1h1l-1 2h-1z"/></g><g fill="#2EA7E0"><path d="M715 961l-1 1-1 3 1 3 1 1h1v-3h-1 3-1v3h-2l-2-1-1-3 1-3 2-1h2v2l-1-1-1-1zM719 965v3l1 1h-2 1v-7-1h-1 3l1 1 1 1-1 2h-3zm1 0h2v-2-1l-2-1-1 1v3h1zM727 966h-2v2 1h-2 1v-1l2-7 2 7v1h1-2v-3zm-1-4l-1 4h2l-1-4zM730 962v-1c0-1 0 0 0 0h-1 2l2 1 1 3-1 3-2 1h-2 1v-7zm3 3v-3l-2-1v8l2-1v-3zM738 969l-2-1-1-3 1-3 2-1h1l1 2h-1v-1l-1-1-2 1v6l2 1 1-1v-1h1l-1 2h-1z"/></g><g fill="#2EA7E0"><path d="M748 961l-1 1-1 3v3l2 1h1v-3h-1 2v3h-1-1l-2-1-1-3 1-3 2-1h1l1 2h-1v-1l-1-1zM752 965v4h1-2v-7-1h2l2 1 1 1-1 2h-3zm1 0h1l1-2-1-1-1-1h-1v4h1zM760 966h-2l-1 2v1h1-2 1v-1l1-7h1l2 7v1h-1v-3zm-1-4l-1 4h2l-1-4zM763 962v-1h-1 2l2 1 1 3-1 3-2 1h-2 1v-7zm3 3v-3l-2-1h-1v8h1l1-1 1-3zM770 969l-2-1v-3-3l2-1h2v1l-2-1-1 1-1 3 1 3 1 1 2-1v-1 2h-2z"/></g><g fill="#2EA7E0"><path d="M784 968l1 1h-2 1v-7l-2 7-1-7v7h-1v-7-1c0-1 0 0 0 0h1l1 6 2-6h1l-1 1v6zM790 965v3l-2 1-2-1v-3-3l2-1 2 1v3zm-4 0l1 3 1 1 1-1 1-3-1-3-1-1-1 1-1 3zM794 969l-2-1-1-3 1-3 2-1h1c1 0 0 0 0 0h1v2l-1-1-1-1-2 1v6l2 1 1-1 1-1-1 2h-1zM800 966h-2v2 1h-2 1v-1l2-7 2 7v1h1-2v-3zm-1-4l-1 4h2l-1-4z"/></g><g fill="#2EA7E0"><path d="M818 968v1h1-2 1v-7l-2 7-2-7v7h1-1v-7-1h1l1 6 1-6h1v7zM824 965v3l-2 1-2-1-1-3 1-3 2-1 2 1v3zm-4 0l1 3 1 1 1-1 1-3-1-3-1-1-1 1-1 3zM828 969l-2-1-1-3 1-3 2-1h1l1 2-1-1-1-1-2 1v6l2 1 1-1 1-1-1 1-1 1zM834 966h-2l-1 2 1 1h-2 1v-1l2-7 2 7v1h1-2v-3zm-1-4l-1 4h2l-1-4z"/></g><g fill="#2EA7E0"><path d="M852 969v1h-2v-1h1v-6l-2 7-1-7v7h-1v-8h1l1 6 2-6h1v7zM858 965l-1 4-2 1-1-2-1-3v-2l2-2 2 2 1 2zm-4 0v3l1 1 1-1 1-3v-2l-2-1-1 1v2zM861 970l-2-1-1-3 1-3 2-2 1 1h1v-1 3l-1-2h-1l-1 1-1 2 1 3 1 1h1l1-2-1 2-1 1zM867 967h-2v3h-1v-1l2-7 1-1 1 8h1v1h-2v-1h1l-1-2zm-1-5l-1 4h2l-1-4z"/></g><g fill="#2EA7E0"><path d="M884 969h1v1h-2v-7l-1 7h-1l-1-7v7h-1v-1h1v-7h-1 1l2 6 1-6h2-1v7zM890 965l-1 4-2 1-1-2-1-3 1-2 1-2 2 2 1 2zm-4 0v3l1 1 2-1v-3-2l-2-1-1 1v2zM893 970l-2-1v-3-3l2-2 1 1h1v-1 3l-1-2h-1l-1 1-1 2 1 3 1 1h1l1-2v2l-2 1zM899 967h-2v3h-1v-1h1l1-7 1-1 2 8v1h-2v-1h1l-1-2zm-1-5l-1 4h2l-1-4z"/></g><g fill="#2EA7E0"><path d="M915 969h3v-1 2h-4v-9h2v1h-1v7zM919 966v-1h5v1h-5zM913 984h1v-7-1h-1 5v3l-1 1h1v3l-2 1h-3zm4-6v-1l-1-1h-1v3h2v-1zm-1 6l1-1 1-1-1-2h-2v4h1zM921 984h-1l-1-1 1-2 3-1-1-1h-1l-1 1v-1h3v4l1 1v-1 1h-1v-1l-1 1h-1zm-1-1l1 1h1l1-1v-2h-2l-1 2zM925 984v-5h1v-1 2l1-1h2v5h1-2v-4-1h-1l-1 1v4h1-2zM933 984l-2-1v-2-2h3v-2-1h-1 2v8h-1v-1l-1 1zm1-4l-1-1c-1 0 0 0 0 0l-1 1-1 1 1 2 1 1 1-1v-3z"/></g><g fill="#2EA7E0"><path d="M948 969h3l1-1v2h-5v-1h1v-7h-1 2-1v7zM953 966v-1h4v1h-4zM947 984l1-1v-6l-1-1h4l1 2-1 1-1 1h2v2l-1 1-1 1h-3zm4-6l-1-1-1-1h-1v3h2l1-1zm-2 6l2-1v-1-2h-3v4h1zM954 984h-1v-1-2l3-1v-1h-2v1h-1l1-1h2l1 1v3h1l-1 1h-1v-1l-1 1h-1zm-1-1h1v1h1l1-1v-2h-2l-1 2zM958 984h1v-5h-1 1v-1 2l1-1h2v4l1 1h-2 1v-4-1h-1-1l-1 1v3l1 1h-2zM966 984l-1-1-1-2 1-2h2v-2-1h1v7h1v1h-2v-1 1h-1zm1-4v-1h-1l-1 1v3l1 1 1-1v-3z"/></g><g fill="#2EA7E0"><path d="M980 969h3v-1h1l-1 2h-4v-9h2v1h-1v7zM984 966v-1h5v1h-5zM979 984v-7-1h4v3l-1 1h1l1 2-1 1-2 1h-2zm3-6v-1l-1-1h-1v3h2v-1zm-1 6l1-1 1-1-1-2h-2v4h1zM986 984h-1l-1-1 1-2 3-1v-1h-2l-1 1c1 0 1 0 0 0v-1h3v4h1v1h-1v-1l-1 1h-1zm-1-1l1 1h1l1-1v-2h-2l-1 2zM990 984l1-1v-4h-1 1v-1 2l1-1h2v5h1-2 1v-4l-1-1h-1l-1 1v4h1-2zM998 984l-2-1v-2-2h3v-2-1h-1 2v8h-1v-1 1h-1zm1-4v-1h-1l-1 1v3l1 1 1-1v-3z"/></g><g fill="#2EA7E0"><path d="M1014 969h2l1-1v2h-5v-1h1v-7h-1 2v7zM1018 966v-1h5v1h-5zM1012 984h1v-7-1h-1 4l1 2-1 1-1 1 2 1v1l-1 1-1 1h-3zm4-6l-1-1-1-1-1 1v2h2l1-1zm-1 6l1-1v-1-2h-3v3l1 1h1zM1020 984h-2v-1l1-2h2v-1-1h-1-1v1h-1l1-1h2l1 1v3h1v1h-1l-1-1-1 1zm-1-1l1 1 1-1v-2h-2v2zM1023 984h1v-5h-1 1v-1h1v1h2l1 1v4h-2 1v-4-1h-1-1v5h-2zM1031 984l-1-1-1-2 1-2h3v-2-1h-1 1v7h1v1h-1v-1l-1 1h-1zm2-4l-1-1h-1l-1 1v3l1 1 1-1 1-1v-2z"/></g><g fill="#2EA7E0"><path d="M1047 968v1h2l1-1v-1h1l-1 2h-4v-7-1h2-1v7zM1051 965h5-5zM1045 984v-1h1v-7h-1v-1h3l2 1v2l-1 1 1 1v3l-2 1h-3zm4-7v-1h-2v3h2v-2zm-1 6h1l1-2-1-1-1-1h-1v4h1zM1053 984l-1-1-1-1 1-1 3-1v-1l-1-1-1 1h-1v0l2-1 1 1v4h1v-1 1l-1 1v-1h-1l-1 1zm-1-2v1h3v-3l-2 1-1 1zM1057 984v-6h1v1l1-1h1l1 1v4h1v1h-2v-4-1h-1l-1 1v3h1v1h-2zM1065 984l-2-1v-2-2l2-1 1 1v-3h-1v-1h2v8l-1 1v-1h-1v1zm1-5h-2l-1 2 1 2h2v-4z"/></g><g fill="#2EA7E0"><path d="M1080 968l1 1h1l1-1 1-1v2h-5 1v-7-1h-1 2l-1 1v6zM1085 965h4-4zM1079 984v-1h1v-7h-1 4l1 1-1 1-1 1 2 1v1l-1 2-1 1h-3zm4-7l-1-1h-1-1v3h2l1-2zm-2 6h2v-2-1l-2-1h-1v4h1zM1086 984l-1-1v-1-1l3-1v-1l-1-1-1 1v1h-1v-1h1l1-1 1 1 1 1v2h1l-1 1v1l-1-1h-1l-1 1zm-1-2l1 1h2v-3l-2 1-1 1zM1090 984v-1h1v-4h-1v-1h1v1l1-1h1l1 1 1 1v4h-2v-1h1v-3-1h-1-1l-1 1v3h1v1h-2zM1098 984l-1-1-1-2 1-2 1-1h1v1-3l1-1v8h1-1v1h-1v-1l-1 1zm1-5h-1-1v4h2v-4z"/></g><g fill="#2EA7E0"><path d="M1108 969h2l1-1v2h-5v-1h1v-7h-1 2v7zM1112 966v-1h5v1h-5zM1106 984h1v-7-1h-1 4l1 2-1 1-1 1h2v2l-1 1-1 1h-3zm4-6l-1-1-1-1-1 1v2h2l1-1zm-1 6l1-1v-1-2h-3v3l1 1h1zM1114 984h-2v-1l1-2 2-1v-1h-1-1v1h-1l1-1h2l1 1v4l1-1c1 0 0 0 0 0v1h-1l-1-1-1 1zm-1-1l1 1 1-1v-2h-2v2z"/><path d="M1117 984h1v-5h-1 1l1-1v1h2l1 1v4h-2 1v-4-1h-1-1v5h-2zM1125 984l-1-1-1-2 1-2h3v-2-1h-1 1v7h1v1h-1v-1l-1 1h-1zm2-4l-1-1h-1l-1 1v3l1 1 1-1 1-1v-2z"/></g><g fill="#2EA7E0"><path d="M1141 969h3v-1h1l-1 2h-4v-8h2-1v7zM1145 966v-1h5v1h-5zM1139 984h1v-7-1h-1 5v3l-1 1 1 1v2l-2 1h-3zm4-6v-1l-1-1h-1v3h2v-1zm-1 6l1-1 1-1-1-2h-2v4h1zM1147 984h-1l-1-1 1-2h3v-1-1h-2l-1 1v-1h3v4l1 1v-1 1h-1v-1l-1 1h-1zm-1-1l1 1h1l1-1v-2h-2l-1 2zM1151 984v-5h1v-1 2l1-1h2v5h1-2v-4-1h-1l-1 1v4h1-2zM1159 984l-2-1v-2-2h3v-2-1h-1 2v8h-1v-1l-1 1zm1-4v-1h-1l-1 1-1 1 1 2 1 1 1-1v-3z"/></g><path fill="none" stroke="#2EA7E0" stroke-miterlimit="10" d="M1233 958h33v53h-33z"/><g fill="#2EA7E0"><path d="M1179 969l-2-1-1-3 1-3 2-1h1l1 2-1-1-1-1-2 1v6l2 1 1-1 1-1-1 2h-1zM1184 969l-2-1v-3-3l2-1h2v2l-1-1-1-1-1 1-1 3 1 3 1 1 1-1 1-1v2h-2zM1189 965l-1-1-1-1 1-1 1-1h2v2l-1-1-1-1-1 1v2l2 1 1 1 1 1-1 2h-2-1l-1-2h1v1l2 1 1-1v-1-1l-2-1zM1179 981h-2v3h-1v-1l2-7 1-1 1 8h1v1h-2v-1h1l-1-2zm-1-5l-1 4h2l-1-4zM1185 984h-2v-1h1v-7h-1-1v1-1h4v0h-1-1v7h1v1zM1187 976h4l1 1-1-1h-3v3h2l1-1v3-1h-1v-1h-2v4h3l1-1v2h-5v-1h1v-7h-1z"/></g><g fill="#2EA7E0"><path d="M1212 969l-2-1v-3-3l2-1h2v1l-2-1-1 1-1 3 1 3 1 1 2-1v-1 1l-2 1zM1218 969l-2-1-1-3 1-3 2-1h1c1 0 0 0 0 0h1v2l-1-1-1-1-1 1-1 3v3l2 1 1-1 1-1-1 1-1 1zM1223 965l-2-1v-1l1-2h3v2l-1-2h-1l-1 1v2h1l2 1v3l-2 1h-1c-1 0 0 0 0 0h-1v-2l1 1 1 1 1-1 1-1-1-1-1-1zM1213 980h-2l-1 2v1h1-2 1l2-8 2 8h1-2v-3zm-1-4l-1 4h2l-1-4zM1219 983h-2v-7h-1l-1 1 1-2h4v2l-1-1h-1v7h1zM1221 976v-1h4l1 2h-1v-1h-3v3h2v-1h1v2h-1v-1h-2v4h3l1-2v1l-1 1h-4v-7z"/></g><g fill="#2EA7E0"><path d="M1243 969h3l1-1-1 2h-4v-1h1v-7h-1 1v7zM1248 967l1 2h2l1-1-1 1-1 1-2-1v-2-2l2-1 1 1 1 2h-4zm3 0v-2l-1-1-1 1-1 2h3zM1255 970l-1-1-1-2 1-2 1-1h1l1 1v-3h-1l1-1v8h0v1-1h-1l-1 1zm2-5h-1-1-1v4h2l1-1v-3zM1236 984h1v-7-1h-1 4l1 2-1 1-1 1 2 1v1l-1 1-1 1h-3zm4-6v-1l-2-1v3h2v-1zm-1 6l1-1v-1-2h-2v4h1zM1247 981l-1 2-2 1-1-1-1-2 1-2h3l1 2zm-4 0v2l1 1 1-1 1-2-1-2h-1-1v2zM1249 980l1-1h2v1h-1v-1h-1l-1 2v3h2-4 2v-5h-2 1a5 5 0 0 0 1-1v2zM1255 984h-1l-1-1 1-2h3v-1l-1-1h-1-1v1h-1l1-1h3v5l1-1v1h-1v-1l-1 1h-1zm-1-1l1 1h1l1-1v-2h-3v2zM1261 984l-1-1-1-2 1-2h2v-2-1h1v7h1v1h-1-1v-1 1h-1zm1-4v-1h-1l-1 1v3l1 1 1-1v-3z"/></g><g fill="#2EA7E0"><path d="M560 915h-3l-1 2 1 1h-3 1v-1l3-7h1l3 7v1h1-3v-3zm-2-4l-1 4h3l-2-4zM569 918h-3 1v-7-1h-1l-1 1-1 1h-1l1-2h7v2l-1-1-1-1h-1v8h1zM572 910h7l1 2-2-1-1-1h-2l-1 1v3h2l2-1v-1 2h-4v3l1 1h2l2-1 1-1-1 2h-7 1v-7-1h-1zM563 924v1h-1l-2 7-1-5h-1l-1 5-2-7h-1v-1h3v1h-1l1 5 1-4v-1h-1v-1h3v1h-1l1 5 1-5c1 0 0 0 0 0v-1h2zM565 925v-1h5v1h-2v7h2-5 2v-7h-2zM574 929v3h2-4 1v-7h-1v-1h4l3 1 1 1-1 2-2 1h-3zm2-1h2l1-1-1-2h-3-1v3h2z"/></g></svg>