<?xml version="1.0" encoding="utf-8"?>
<!-- Generator: Adobe Illustrator 16.0.0, SVG Export Plug-In . SVG Version: 6.00 Build 0)  -->
<!DOCTYPE svg PUBLIC "-//W3C//DTD SVG 1.1//EN" "http://www.w3.org/Graphics/SVG/1.1/DTD/svg11.dtd">
<svg version="1.1" id="图层_1" xmlns="http://www.w3.org/2000/svg" xmlns:xlink="http://www.w3.org/1999/xlink" x="0px" y="0px"
	 width="578.778px" height="462.616px" viewBox="9.227 157.318 578.778 462.616"
	 enable-background="new 9.227 157.318 578.778 462.616" xml:space="preserve">
<line fill="none" stroke="#000000" stroke-miterlimit="10" x1="475.384" y1="507.313" x2="587.505" y2="508.323"/>
<line fill="none" stroke="#000000" stroke-miterlimit="10" x1="475.384" y1="507.313" x2="475.384" y2="619.435"/>
<line fill="none" stroke="#000000" stroke-miterlimit="10" x1="568.314" y1="598.223" x2="568.314" y2="615.394"/>
<line fill="none" stroke="#000000" stroke-miterlimit="10" x1="568.314" y1="598.223" x2="587.505" y2="598.223"/>
<line fill="none" stroke="#000000" stroke-miterlimit="10" x1="14.778" y1="194.182" x2="537" y2="194.182"/>
<line fill="none" stroke="#000000" stroke-miterlimit="10" x1="537" y1="194.182" x2="537" y2="378.02"/>
<line fill="none" stroke="#000000" stroke-miterlimit="10" x1="27.909" y1="163.879" x2="28.919" y2="194.182"/>
<line fill="none" stroke="#000000" stroke-miterlimit="10" x1="24.879" y1="157.818" x2="14.778" y2="194.182"/>
<rect x="537" y="378.02" fill="none" stroke="#000000" stroke-miterlimit="10" width="50.506" height="48.485"/>
<line fill="none" stroke="#000000" stroke-miterlimit="10" x1="587.505" y1="378.02" x2="537" y2="426.506"/>
<line fill="none" stroke="#000000" stroke-miterlimit="10" x1="537" y1="378.02" x2="587.505" y2="426.506"/>
<rect x="78.414" y="507.313" fill="none" stroke="#000000" stroke-miterlimit="10" width="50.505" height="43.434"/>
<polygon fill="none" stroke="#000000" stroke-miterlimit="10" points="177.92,508.323 231.456,508.323 230.94,550.747 
	177.404,550.747 "/>
<rect x="280.434" y="508.323" fill="none" stroke="#000000" stroke-miterlimit="10" width="58.585" height="42.424"/>
<rect x="83.465" y="230.545" fill="none" stroke="#000000" stroke-miterlimit="10" width="45.454" height="248.485"/>
<rect x="435.99" y="230.545" fill="none" stroke="#000000" stroke-miterlimit="10" width="51.516" height="46.466"/>
<rect x="435.99" y="297.212" fill="none" stroke="#000000" stroke-miterlimit="10" width="51.516" height="50.505"/>
<rect x="435.99" y="370.95" fill="none" stroke="#000000" stroke-miterlimit="10" width="51.516" height="49.995"/>
<rect x="407.707" y="508.323" fill="none" stroke="#000000" stroke-miterlimit="10" width="54.041" height="42.424"/>
<rect x="475.384" y="508.323" fill="none" stroke="#000000" stroke-miterlimit="10" width="47.475" height="42.424"/>
<line fill="none" stroke="#000000" stroke-miterlimit="10" x1="391.546" y1="194.182" x2="390.535" y2="473.979"/>
<line fill="none" stroke="#000000" stroke-miterlimit="10" x1="390.535" y1="508.323" x2="391.546" y2="619.435"/>
<line fill="none" stroke="#000000" stroke-miterlimit="10" x1="14.778" y1="573.979" x2="390.535" y2="569.939"/>
<line fill="none" stroke="#000000" stroke-miterlimit="10" x1="44.071" y1="194.182" x2="50.131" y2="571.959"/>
<line fill="none" stroke="#000000" stroke-miterlimit="10" x1="9.727" y1="245.697" x2="44.071" y2="243.677"/>
<line fill="none" stroke="#000000" stroke-miterlimit="10" x1="14.778" y1="293.172" x2="44.071" y2="297.212"/>
<line fill="none" stroke="#000000" stroke-miterlimit="10" x1="14.778" y1="347.717" x2="47.101" y2="366.909"/>
<line fill="none" stroke="#000000" stroke-miterlimit="10" x1="14.778" y1="408.323" x2="47.895" y2="432.569"/>
<line fill="none" stroke="#000000" stroke-miterlimit="10" x1="14.778" y1="473.979" x2="47.101" y2="497.213"/>
<line fill="none" stroke="#000000" stroke-miterlimit="10" x1="14.778" y1="520.444" x2="50.131" y2="539.637"/>
</svg>
