<?xml version="1.0" encoding="utf-8"?>
<!-- Generator: Adobe Illustrator 16.0.0, SVG Export Plug-In . SVG Version: 6.00 Build 0)  -->
<!DOCTYPE svg PUBLIC "-//W3C//DTD SVG 1.1//EN" "http://www.w3.org/Graphics/SVG/1.1/DTD/svg11.dtd">
<svg version="1.1" id="图层_1" xmlns="http://www.w3.org/2000/svg" xmlns:xlink="http://www.w3.org/1999/xlink" x="0px" y="0px"
	 width="595.28px" height="841.89px" viewBox="0 0 595.28 841.89" enable-background="new 0 0 595.28 841.89" xml:space="preserve">
<rect name="设备1" x="97.97" y="62.869" fill="#FFFFFF" stroke="#000000" stroke-miterlimit="10" width="58.586" height="104.041"/>
<rect name="设备2" x="97.97" y="166.909" fill="#FFFFFF" stroke="#000000" stroke-miterlimit="10" width="0" height="6.061"/>
<rect name="设备3" x="97.97" y="169.939" fill="#FFFFFF" stroke="#000000" stroke-miterlimit="10" width="58.586" height="110.101"/>
<rect name="设备4" x="97.97" y="280.041" fill="#FFFFFF" stroke="#000000" stroke-miterlimit="10" width="58.586" height="113.131"/>
<rect name="设备5" x="117.162" y="393.172" fill="#FFFFFF" stroke="#000000" stroke-miterlimit="10" width="39.394" height="27.773"/>
<rect name="设备6" x="97.97" y="420.945" fill="#FFFFFF" stroke="#000000" stroke-miterlimit="10" width="58.586" height="31.823"/>
<line fill="none" stroke="#000000" stroke-miterlimit="10" x1="212.111" y1="62.869" x2="212.111" y2="452.768"/>
<rect name="设备7" x="276.757" y="62.869" fill="none" stroke="#000000" stroke-miterlimit="10" width="58.586" height="29.293"/>
<rect name="设备8" x="276.757" y="92.162" fill="none" stroke="#000000" stroke-miterlimit="10" width="58.586" height="28.283"/>
<rect name="设备9" x="276.757" y="154.788" fill="none" stroke="#000000" stroke-miterlimit="10" width="115.152" height="40.404"/>
<rect name="设备11" x="276.757" y="195.192" fill="none" stroke="#000000" stroke-miterlimit="10" width="115.152" height="38.384"/>
<rect name="设备12" x="276.757" y="291.151" fill="none" stroke="#000000" stroke-miterlimit="10" width="115.152" height="40.404"/>
<rect name="设备13" x="276.757" y="331.556" fill="none" stroke="#000000" stroke-miterlimit="10" width="58.586" height="33.333"/>
<rect name="设备14" x="276.757" y="364.889" fill="none" stroke="#000000" stroke-miterlimit="10" width="58.586" height="28.283"/>
</svg>
