<?xml version="1.0" encoding="utf-8"?>
<!-- Generator: Adobe Illustrator 16.0.0, SVG Export Plug-In . SVG Version: 6.00 Build 0)  -->
<!DOCTYPE svg PUBLIC "-//W3C//DTD SVG 1.1//EN" "http://www.w3.org/Graphics/SVG/1.1/DTD/svg11.dtd">
<svg version="1.1" xmlns="http://www.w3.org/2000/svg" xmlns:xlink="http://www.w3.org/1999/xlink" x="0px" y="0px" width="1280px"
	 height="1024px" viewBox="0 0 1280 1024" enable-background="new 0 0 1280 1024" xml:space="preserve">
<g id="图层_1">
	<rect fill="#09112C" stroke="#000000" stroke-miterlimit="10" width="1280" height="1024"/>
</g>
<g id="图层_2">
	<text transform="matrix(1 0 0 1 401.9585 106.2334)" fill="#2EA7E0" font-family="'SimHei'" font-size="60">SBII产线PIS看板</text>
	<rect x="132.52" y="397.955" fill="none" stroke="#2EA7E0" stroke-miterlimit="10" width="49.632" height="92.5"/>
	<rect x="68.773" y="490.455" fill="none" stroke="#2EA7E0" stroke-miterlimit="10" width="63.746" height="92.5"/>
	<rect x="182.895" y="490.455" fill="none" stroke="#2EA7E0" stroke-miterlimit="10" width="63.746" height="92.5"/>
	<rect x="246.641" y="490.455" fill="none" stroke="#2EA7E0" stroke-miterlimit="10" width="63.746" height="92.5"/>
	<rect x="310.386" y="397.955" fill="none" stroke="#2EA7E0" stroke-miterlimit="10" width="49.633" height="92.5"/>
	<rect x="360.154" y="490.455" fill="none" stroke="#2EA7E0" stroke-miterlimit="10" width="63.747" height="92.5"/>
	<rect x="423.9" y="490.455" fill="none" stroke="#2EA7E0" stroke-miterlimit="10" width="63.746" height="92.5"/>
	<rect x="487.646" y="397.955" fill="none" stroke="#2EA7E0" stroke-miterlimit="10" width="49.633" height="92.5"/>
	<rect x="537.278" y="490.455" fill="none" stroke="#2EA7E0" stroke-miterlimit="10" width="63.745" height="92.5"/>
	<rect x="601.023" y="397.955" fill="none" stroke="#2EA7E0" stroke-miterlimit="10" width="49.633" height="92.5"/>
	<rect x="650.657" y="490.455" fill="none" stroke="#2EA7E0" stroke-miterlimit="10" width="63.746" height="92.5"/>
	<rect x="827.78" y="490.455" fill="none" stroke="#2EA7E0" stroke-miterlimit="10" width="41.543" height="92.5"/>
	<rect x="764.035" y="490.455" fill="none" stroke="#2EA7E0" stroke-miterlimit="10" width="63.745" height="92.5"/>
	<rect x="869.323" y="490.455" fill="none" stroke="#2EA7E0" stroke-miterlimit="10" width="41.543" height="92.5"/>
	<rect x="714.402" y="397.955" fill="none" stroke="#2EA7E0" stroke-miterlimit="10" width="49.633" height="92.5"/>
	<rect x="910.866" y="490.455" fill="none" stroke="#2EA7E0" stroke-miterlimit="10" width="41.543" height="92.5"/>
	<rect x="952.409" y="453.955" fill="none" stroke="#2EA7E0" stroke-miterlimit="10" width="41.543" height="129"/>
	<rect x="993.952" y="453.955" fill="none" stroke="#2EA7E0" stroke-miterlimit="10" width="41.543" height="129"/>
	<rect x="1035.724" y="453.955" fill="none" stroke="#2EA7E0" stroke-miterlimit="10" width="41.543" height="129"/>
	<rect x="1077.038" y="453.955" fill="none" stroke="#2EA7E0" stroke-miterlimit="10" width="41.543" height="129"/>
	<rect x="1118.581" y="453.955" fill="none" stroke="#2EA7E0" stroke-miterlimit="10" width="41.543" height="129"/>
	<rect x="68.773" y="646.955" fill="none" stroke="#2EA7E0" stroke-miterlimit="10" width="114.122" height="92.5"/>
	<rect x="182.895" y="646.955" fill="none" stroke="#2EA7E0" stroke-miterlimit="10" width="63.746" height="92.5"/>
	<rect x="303.33" y="646.955" fill="none" stroke="#2EA7E0" stroke-miterlimit="10" width="45.08" height="92.5"/>
	<rect x="348.409" y="646.955" fill="none" stroke="#2EA7E0" stroke-miterlimit="10" width="45.08" height="92.5"/>
	<rect x="393.489" y="646.955" fill="none" stroke="#2EA7E0" stroke-miterlimit="10" width="45.08" height="92.5"/>
	<rect x="438.568" y="646.955" fill="none" stroke="#2EA7E0" stroke-miterlimit="10" width="45.08" height="92.5"/>
	<rect x="483.409" y="646.955" fill="none" stroke="#2EA7E0" stroke-miterlimit="10" width="45.08" height="92.5"/>
	<rect x="528.489" y="646.955" fill="none" stroke="#2EA7E0" stroke-miterlimit="10" width="45.08" height="92.5"/>
	<rect x="573.568" y="646.955" fill="none" stroke="#2EA7E0" stroke-miterlimit="10" width="45.08" height="92.5"/>
	<rect x="644.568" y="646.955" fill="none" stroke="#2EA7E0" stroke-miterlimit="10" width="61.841" height="92.5"/>
	<rect x="787.409" y="646.955" fill="none" stroke="#2EA7E0" stroke-miterlimit="10" width="70" height="46.25"/>
	<rect x="857.409" y="646.955" fill="none" stroke="#2EA7E0" stroke-miterlimit="10" width="70" height="46.25"/>
	<text transform="matrix(1 0 0 1 107.834 698.9546)"><tspan x="0" y="0" stroke="#00A29A" stroke-width="0.5" font-family="'NSimSun'" font-size="18">A</tspan><tspan x="9" y="0" stroke="#00A29A" stroke-width="0.5" stroke-miterlimit="10" font-family="'NSimSun'" font-size="18">ssy</tspan></text>
	<text transform="matrix(1 0 0 1 196.7676 698.9546)"><tspan x="0" y="0" stroke="#00A29A" stroke-width="0.5" font-family="'NSimSun'" font-size="18">A</tspan><tspan x="9" y="0" stroke="#00A29A" stroke-width="0.5" stroke-miterlimit="10" font-family="'NSimSun'" font-size="18">ssy</tspan></text>
	<text transform="matrix(1 0 0 1 82.6465 536.7046)"><tspan x="0" y="0" stroke="#00A29A" stroke-width="0.5" font-family="'NSimSun'" font-size="18">A</tspan><tspan x="9" y="0" stroke="#00A29A" stroke-width="0.5" stroke-miterlimit="10" font-family="'NSimSun'" font-size="18">ssy</tspan></text>
	<text transform="matrix(1 0 0 1 139.3359 448.7046)"><tspan x="0" y="0" stroke="#00A29A" stroke-width="0.5" font-family="'NSimSun'" font-size="18">A</tspan><tspan x="9" y="0" stroke="#00A29A" stroke-width="0.5" stroke-miterlimit="10" font-family="'NSimSun'" font-size="18">ssy</tspan></text>
	<text transform="matrix(1 0 0 1 318.4399 445.9546)"><tspan x="0" y="0" stroke="#00A29A" stroke-width="0.5" font-family="'NSimSun'" font-size="18">A</tspan><tspan x="9" y="0" stroke="#00A29A" stroke-width="0.5" stroke-miterlimit="10" font-family="'NSimSun'" font-size="18">ssy</tspan></text>
	<text transform="matrix(1 0 0 1 196.7676 540.7046)"><tspan x="0" y="0" stroke="#00A29A" stroke-width="0.5" font-family="'NSimSun'" font-size="18">A</tspan><tspan x="9" y="0" stroke="#00A29A" stroke-width="0.5" stroke-miterlimit="10" font-family="'NSimSun'" font-size="18">ssy</tspan></text>
	<text transform="matrix(1 0 0 1 263.5137 540.7046)"><tspan x="0" y="0" stroke="#00A29A" stroke-width="0.5" font-family="'NSimSun'" font-size="18">A</tspan><tspan x="9" y="0" stroke="#00A29A" stroke-width="0.5" stroke-miterlimit="10" font-family="'NSimSun'" font-size="18">ssy</tspan></text>
	<text transform="matrix(1 0 0 1 370.4399 536.7046)"><tspan x="0" y="0" stroke="#00A29A" stroke-width="0.5" font-family="'NSimSun'" font-size="18">A</tspan><tspan x="9" y="0" stroke="#00A29A" stroke-width="0.5" stroke-miterlimit="10" font-family="'NSimSun'" font-size="18">ssy</tspan></text>
	<text transform="matrix(1 0 0 1 437.7729 536.7046)"><tspan x="0" y="0" stroke="#00A29A" stroke-width="0.5" font-family="'NSimSun'" font-size="18">A</tspan><tspan x="9" y="0" stroke="#00A29A" stroke-width="0.5" stroke-miterlimit="10" font-family="'NSimSun'" font-size="18">ssy</tspan></text>
	<text transform="matrix(1 0 0 1 494.4624 444.2046)"><tspan x="0" y="0" stroke="#00A29A" stroke-width="0.5" font-family="'NSimSun'" font-size="18">A</tspan><tspan x="9" y="0" stroke="#00A29A" stroke-width="0.5" stroke-miterlimit="10" font-family="'NSimSun'" font-size="18">ssy</tspan></text>
	<text transform="matrix(1 0 0 1 551.1509 536.7046)"><tspan x="0" y="0" stroke="#00A29A" stroke-width="0.5" font-family="'NSimSun'" font-size="18">A</tspan><tspan x="9" y="0" stroke="#00A29A" stroke-width="0.5" stroke-miterlimit="10" font-family="'NSimSun'" font-size="18">ssy</tspan></text>
	<text transform="matrix(1 0 0 1 607.8403 444.2046)"><tspan x="0" y="0" stroke="#00A29A" stroke-width="0.5" font-family="'NSimSun'" font-size="18">A</tspan><tspan x="9" y="0" stroke="#00A29A" stroke-width="0.5" stroke-miterlimit="10" font-family="'NSimSun'" font-size="18">ssy</tspan></text>
	<text transform="matrix(1 0 0 1 664.5293 536.7046)"><tspan x="0" y="0" stroke="#00A29A" stroke-width="0.5" font-family="'NSimSun'" font-size="18">A</tspan><tspan x="9" y="0" stroke="#00A29A" stroke-width="0.5" stroke-miterlimit="10" font-family="'NSimSun'" font-size="18">ssy</tspan></text>
	<text transform="matrix(1 0 0 1 721.2178 438.7046)"><tspan x="0" y="0" stroke="#00A29A" stroke-width="0.5" font-family="'NSimSun'" font-size="18">A</tspan><tspan x="9" y="0" stroke="#00A29A" stroke-width="0.5" stroke-miterlimit="10" font-family="'NSimSun'" font-size="18">ssy</tspan></text>
	<text transform="matrix(1 0 0 1 777.4092 540.7046)"><tspan x="0" y="0" stroke="#00A29A" stroke-width="0.5" font-family="'NSimSun'" font-size="18">A</tspan><tspan x="9" y="0" stroke="#00A29A" stroke-width="0.5" stroke-miterlimit="10" font-family="'NSimSun'" font-size="18">ssy</tspan></text>
	<text transform="matrix(1 0 0 1 835.0518 540.7046)" stroke="#00A29A" stroke-width="0.5" font-family="'NSimSun'" font-size="18">FTC</text>
	<text transform="matrix(1 0 0 1 876.5947 540.7046)" stroke="#00A29A" stroke-width="0.5" font-family="'NSimSun'" font-size="18">FTC</text>
	<text transform="matrix(1 0 0 1 918.1377 540.7046)" stroke="#00A29A" stroke-width="0.5" font-family="'NSimSun'" font-size="18">FTC</text>
	<text transform="matrix(1 0 0 1 955.1807 538.7046)" stroke="#00A29A" stroke-width="0.5" font-family="'NSimSun'" font-size="18">PAT4</text>
	
		<text transform="matrix(1 0 0 1 1038.4951 540.7046)" stroke="#00A29A" stroke-width="0.5" font-family="'NSimSun'" font-size="18">PAT2</text>
	<text transform="matrix(1 0 0 1 996.7236 539.7046)" stroke="#00A29A" stroke-width="0.5" font-family="'NSimSun'" font-size="18">PAT3</text>
	
		<text transform="matrix(1 0 0 1 1080.8096 540.7046)" stroke="#00A29A" stroke-width="0.5" font-family="'NSimSun'" font-size="18">PAT1</text>
	
		<text transform="matrix(1 0 0 1 1123.3525 541.7046)" stroke="#00A29A" stroke-width="0.5" font-family="'NSimSun'" font-size="18">PAT5</text>
	<text transform="matrix(1 0 0 1 307.8696 698.9546)" stroke="#00A29A" stroke-width="0.5" font-family="'NSimSun'" font-size="18">PUT2</text>
	<text transform="matrix(1 0 0 1 357.4487 699.9546)" stroke="#00A29A" stroke-width="0.5" font-family="'NSimSun'" font-size="18">FCT</text>
	<text transform="matrix(1 0 0 1 402.4487 699.9546)" stroke="#00A29A" stroke-width="0.5" font-family="'NSimSun'" font-size="18">FCT</text>
	<text transform="matrix(1 0 0 1 447.2729 699.9546)" stroke="#00A29A" stroke-width="0.5" font-family="'NSimSun'" font-size="18">FCT</text>
	<text transform="matrix(1 0 0 1 492.4487 699.9546)" stroke="#00A29A" stroke-width="0.5" font-family="'NSimSun'" font-size="18">FCT</text>
	<text transform="matrix(1 0 0 1 535.0679 700.2046)" stroke="#00A29A" stroke-width="0.5" font-family="'NSimSun'" font-size="18">FCT</text>
	<text transform="matrix(1 0 0 1 582.6079 700.9546)" stroke="#00A29A" stroke-width="0.5" font-family="'NSimSun'" font-size="18">FCT</text>
	<text transform="matrix(1 0 0 1 648.4888 693.2046)" stroke="#00A29A" stroke-width="0.5" font-family="'NSimSun'" font-size="18">Router</text>
	<rect x="706.297" y="646.955" fill="none" stroke="#2EA7E0" stroke-miterlimit="10" width="61.841" height="92.5"/>
	<text transform="matrix(1 0 0 1 712.2178 693.2046)" stroke="#00A29A" stroke-width="0.5" font-family="'NSimSun'" font-size="18">Router</text>
	<text transform="matrix(1 0 0 1 799.5674 678.2046)" stroke="#00A29A" stroke-width="0.5" font-family="'NSimSun'" font-size="18">T,Rx</text>
	<text transform="matrix(1 0 0 1 873.0674 678.2046)" stroke="#00A29A" stroke-width="0.5" font-family="'NSimSun'" font-size="18">-RF</text>
	<rect x="909.552" y="150.955" fill="none" stroke="#2EA7E0" stroke-width="0.5" width="292.801" height="139"/>
	<text transform="matrix(1 0 0 1 914.9404 173.9546)" stroke="#00A29A" stroke-width="0.5" font-family="'NSimSun'" font-size="18">状态说明:</text>
	<text transform="matrix(1 0 0 1 919.1563 208.9546)" stroke="#00A29A" stroke-width="0.5" font-family="'NSimSun'" font-size="18">1.正常:</text>
	<text transform="matrix(1 0 0 1 921.9404 262.9546)" stroke="#00A29A" stroke-width="0.5" font-family="'NSimSun'" font-size="18">3.空闲:</text>
	
		<text transform="matrix(1 0 0 1 1061.5352 209.9546)" stroke="#00A29A" stroke-width="0.5" font-family="'NSimSun'" font-size="18">2.故障:</text>
	
		<text transform="matrix(1 0 0 1 1067.5352 262.9546)" stroke="#00A29A" stroke-width="0.5" font-family="'NSimSun'" font-size="18">4.告警:</text>
	<rect x="988.852" y="189.955" fill="#009944" stroke="#00A29A" stroke-width="0.5" width="52.644" height="23"/>
	<rect x="1133.803" y="189.955" fill="#E60012" stroke="#00A29A" stroke-width="0.5" width="52.644" height="23"/>
	<rect x="988.852" y="245.955" fill="#C9BC9C" stroke="#00A29A" stroke-width="0.5" width="52.644" height="23"/>
	<rect x="1137.803" y="245.955" fill="#F39800" stroke="#00A29A" stroke-width="0.5" width="52.644" height="23"/>
</g>
</svg>
